<svg xmlns="http://www.w3.org/2000/svg" width="87" height="87" viewBox="0 0 87 87">
  <defs>
    <style>
      .a {
        fill: #ffd764;
        stroke-miterlimit: 10;
        stroke-width: 2px;
      }

      .a, .b {
        stroke: #323c64;
      }

      .b {
        fill: #fff;
        stroke-linecap: round;
        stroke-linejoin: round;
        stroke-width: 1.5px;
      }
    </style>
  </defs>
  <title>actividad</title>
  <g>
    <circle class="a" cx="43.5" cy="43.5" r="42.5"/>
    <path class="b" d="M68.6,25.27H54.9a3.09,3.09,0,0,1-3.08-3.08v-.63a3.43,3.43,0,0,1,.58-1.48,6.5,6.5,0,0,0,.48-2.46,6.57,6.57,0,1,0-13.13,0,6.45,6.45,0,0,0,.48,2.45,3.5,3.5,0,0,1,.44,1.49v.63a3.09,3.09,0,0,1-3.08,3.08H24.82V39a3.09,3.09,0,0,1-3.08,3.08h-.63a3.43,3.43,0,0,1-1.48-.58A6.7,6.7,0,0,0,17.16,41a6.56,6.56,0,0,0,0,13.12,6.69,6.69,0,0,0,2.46-.47,3.44,3.44,0,0,1,1.49-.45h.63a3.09,3.09,0,0,1,3.08,3.08V69.4H37.59a3.08,3.08,0,0,0,3.08-3.08V65.7a3.5,3.5,0,0,0-.44-1.49,6.5,6.5,0,0,1-.48-2.46,6.57,6.57,0,0,1,13.13,0,6.5,6.5,0,0,1-.48,2.46,3.5,3.5,0,0,0-.58,1.49v.62A3.09,3.09,0,0,0,54.9,69.4H68.6V56.28a3.08,3.08,0,0,0-3.08-3.08h-.63a3.43,3.43,0,0,0-1.48.45,6.69,6.69,0,0,1-2.46.47A6.56,6.56,0,0,1,61,41a6.69,6.69,0,0,1,2.46.47,3.5,3.5,0,0,0,1.48.58h.63A3.09,3.09,0,0,0,68.6,39Z"/>
  </g>
</svg>
