<svg xmlns="http://www.w3.org/2000/svg" width="150" height="150" viewBox="0 0 150 150">
  <title>cap2</title>
  <g>
    <g>
      <path d="M75,149a74,74,0,1,1,74-74A74.08,74.08,0,0,1,75,149Z" style="fill: #b2b2b2"/>
      <path d="M75,2A73,73,0,1,1,2,75,73.08,73.08,0,0,1,75,2m0-2a75,75,0,1,0,75,75A75,75,0,0,0,75,0Z" style="fill: #323c64"/>
    </g>
    <g>
      <path d="M75.39,114.34c-4.39,0-5.17-1.13-5.27-1.34a.74.74,0,0,0-.5-.85c-5.16-1.64-15.4-3.94-22-3.94s-14.87,3-19.28,4.75a.82.82,0,0,1-1.13-.76V54a1.85,1.85,0,0,1,.54-1.32,7,7,0,0,1,3.56-2,.74.74,0,0,0,.6-.72V45.78a1.36,1.36,0,0,1,.93-1.27A55.15,55.15,0,0,1,49.1,41.79c10.08,0,18.76,3.07,25.8,9.12a.74.74,0,0,0,1,0c7-6,15.73-9.12,25.8-9.12A55.16,55.16,0,0,1,118,44.5a1.36,1.36,0,0,1,.93,1.27V50a.74.74,0,0,0,.6.72,7,7,0,0,1,3.56,2,1.85,1.85,0,0,1,.54,1.32V112.2a.81.81,0,0,1-.25.59.81.81,0,0,1-.88.17c-4.41-1.77-12.78-4.75-19.28-4.75s-16.86,2.3-22,3.94a.74.74,0,0,0-.5.85C80.56,113.2,79.77,114.34,75.39,114.34Z" style="fill: #ff931e;stroke: #323c64;stroke-linecap: round;stroke-linejoin: round;stroke-width: 2px"/>
      <g>
        <path d="M45.64,103.15c12.15,0,24.1,4.28,28.68,6.12a.78.78,0,0,0,1.07-.72v-57a.78.78,0,0,0-.28-.6,40.05,40.05,0,0,0-12.38-7,43.48,43.48,0,0,0-14.64-2.52A53.29,53.29,0,0,0,31.78,44a.78.78,0,0,0-.53.74v60a.78.78,0,0,0,1.07.72A35.68,35.68,0,0,1,45.64,103.15Z" style="fill: #fff;stroke: #323c64;stroke-linecap: round;stroke-linejoin: round;stroke-width: 2px"/>
        <path d="M102.69,41.39A43.48,43.48,0,0,0,88,43.91a40.06,40.06,0,0,0-12.38,7,.78.78,0,0,0-.28.6v57a.78.78,0,0,0,1.07.72c4.58-1.84,16.54-6.12,28.68-6.12a35.68,35.68,0,0,1,13.31,2.3.78.78,0,0,0,1.07-.72v-60A.78.78,0,0,0,119,44,53.3,53.3,0,0,0,102.69,41.39Z" style="fill: #fff;stroke: #323c64;stroke-linecap: round;stroke-linejoin: round;stroke-width: 2px"/>
      </g>
      <path d="M85.36,45.58V68l5.43-5.43,5,3.41V42.19A50.69,50.69,0,0,0,85.36,45.58Z" style="fill: #f42534;stroke: #323c64;stroke-linecap: round;stroke-linejoin: round;stroke-width: 2px"/>
      <path d="M41.08,64.14s10.05-3.5,26,1.61" style="fill: none;stroke: #323c64;stroke-linecap: round;stroke-linejoin: round;stroke-width: 2px"/>
      <path d="M41.08,74.68s10.05-3.5,26,1.61" style="fill: none;stroke: #323c64;stroke-linecap: round;stroke-linejoin: round;stroke-width: 2px"/>
      <path d="M41.08,85.21s10.05-3.5,26,1.61" style="fill: none;stroke: #323c64;stroke-linecap: round;stroke-linejoin: round;stroke-width: 2px"/>
      <path d="M83.41,80.77s12-5.59,28.25-1.9l0,9.5a57.4,57.4,0,0,0-28.25,1.9Z" style="fill: #3fa9f5;stroke: #323c64;stroke-linecap: round;stroke-linejoin: round;stroke-width: 2px"/>
    </g>
  </g>
</svg>
