<svg xmlns="http://www.w3.org/2000/svg" width="150" height="150" viewBox="0 0 150 150">
  <title>cap3</title>
  <g>
    <g>
      <path d="M75,149a74,74,0,1,1,74-74A74.08,74.08,0,0,1,75,149Z" style="fill: #b2b2b2"/>
      <path d="M75,2A73,73,0,1,1,2,75,73.08,73.08,0,0,1,75,2m0-2a75,75,0,1,0,75,75A75,75,0,0,0,75,0Z" style="fill: #323c64"/>
    </g>
    <g>
      <path d="M36.33,96.75H47.26A12.25,12.25,0,0,1,59.51,109v0a0,0,0,0,1,0,0H24.08a0,0,0,0,1,0,0v0A12.25,12.25,0,0,1,36.33,96.75Z" transform="translate(83.59 205.75) rotate(-180)" style="fill: #3fa9f5;stroke: #323c64;stroke-linecap: round;stroke-linejoin: round;stroke-width: 2px"/>
      <polyline points="24.22 97.03 41.8 54.85 59.22 96.73" style="fill: none;stroke: #323c64;stroke-linecap: round;stroke-linejoin: round;stroke-width: 2px"/>
      <path d="M102.74,96.75h10.94A12.25,12.25,0,0,1,125.92,109v0a0,0,0,0,1,0,0H90.49a0,0,0,0,1,0,0v0a12.25,12.25,0,0,1,12.25-12.25Z" transform="translate(216.41 205.75) rotate(-180)" style="fill: #ff931e;stroke: #323c64;stroke-linecap: round;stroke-linejoin: round;stroke-width: 2px"/>
      <polyline points="90.63 97.03 108.2 54.85 125.63 96.73" style="fill: none;stroke: #323c64;stroke-linecap: round;stroke-linejoin: round;stroke-width: 2px"/>
      <path d="M75.73,26.57a9.93,9.93,0,0,0-3.89,19.06v69.84h7.78V45.63a9.93,9.93,0,0,0-3.89-19.06Zm0,13.79a3.86,3.86,0,1,1,3.86-3.86A3.86,3.86,0,0,1,75.73,40.36Z" style="fill: #fff;stroke: #323c64;stroke-linecap: round;stroke-linejoin: round;stroke-width: 2px"/>
      <path d="M38,51.77H113.5a2,2,0,0,1,2,2V56a0,0,0,0,1,0,0H35.94a0,0,0,0,1,0,0V53.79A2,2,0,0,1,38,51.77Z" style="fill: #f42534;stroke: #323c64;stroke-linecap: round;stroke-linejoin: round;stroke-width: 2px"/>
      <path d="M75.73,109.5h0a14.05,14.05,0,0,1,14.05,14.05v1.63a0,0,0,0,1,0,0H61.68a0,0,0,0,1,0,0v-1.63A14.05,14.05,0,0,1,75.73,109.5Z" style="fill: #dfe2e2;stroke: #323c64;stroke-linecap: round;stroke-linejoin: round;stroke-width: 2px"/>
    </g>
  </g>
</svg>
