<svg xmlns="http://www.w3.org/2000/svg" width="150" height="150" viewBox="0 0 150 150">
  <title>cap6</title>
  <g>
    <g>
      <path d="M75,149a74,74,0,1,1,74-74A74.08,74.08,0,0,1,75,149Z" style="fill: #b2b2b2"/>
      <path d="M75,2A73,73,0,1,1,2,75,73.08,73.08,0,0,1,75,2m0-2a75,75,0,1,0,75,75A75,75,0,0,0,75,0Z" style="fill: #323c64"/>
    </g>
    <g>
      <g>
        <path d="M28.22,104.69h96.72a0,0,0,0,1,0,0v2a6.42,6.42,0,0,1-6.42,6.42H34.63a6.42,6.42,0,0,1-6.42-6.42v-2A0,0,0,0,1,28.22,104.69Z" style="fill: #dfe2e2;stroke: #323c64;stroke-linecap: round;stroke-linejoin: round;stroke-width: 2px"/>
        <path d="M66.35,104.69H86.81a0,0,0,0,1,0,0V107a1.89,1.89,0,0,1-1.89,1.89H68.24A1.89,1.89,0,0,1,66.35,107v-2.32A0,0,0,0,1,66.35,104.69Z" style="fill: #f42534;stroke: #323c64;stroke-linecap: round;stroke-linejoin: round;stroke-width: 2px"/>
        <path d="M41.57,50.73h70a4.52,4.52,0,0,1,4.52,4.52v49.44a0,0,0,0,1,0,0h-79a0,0,0,0,1,0,0V55.25A4.52,4.52,0,0,1,41.57,50.73Z" style="fill: #ff931e;stroke: #323c64;stroke-linecap: round;stroke-linejoin: round;stroke-width: 2px"/>
        <rect x="43.52" y="57.17" width="66.29" height="41.09" style="fill: #fff;stroke: #323c64;stroke-linecap: round;stroke-linejoin: round;stroke-width: 2px"/>
      </g>
      <rect x="54.79" y="74.6" width="43.57" height="10.35" style="fill: #dfe2e2;stroke: #323c64;stroke-linecap: round;stroke-linejoin: round;stroke-width: 2px"/>
      <path d="M72.3,35.9H35.9a5.47,5.47,0,0,0-5.47,5.47V63.76a5.47,5.47,0,0,0,5.47,5.47H63.73l8.57,8.86V69.22h0a5.47,5.47,0,0,0,5.47-5.47V41.36A5.47,5.47,0,0,0,72.3,35.9Z" style="fill: #3fa9f5;stroke: #323c64;stroke-linecap: round;stroke-linejoin: round;stroke-width: 2px"/>
      <g>
        <line x1="42.06" y1="56.41" x2="56.74" y2="56.41" style="fill: none;stroke: #323c64;stroke-linecap: round;stroke-linejoin: round;stroke-width: 2px"/>
        <line x1="42.06" y1="46.73" x2="68.56" y2="46.73" style="fill: none;stroke: #323c64;stroke-linecap: round;stroke-linejoin: round;stroke-width: 2px"/>
      </g>
    </g>
  </g>
</svg>
