<svg xmlns="http://www.w3.org/2000/svg" width="87" height="87" viewBox="0 0 87 87">
  <defs>
    <style>
      .a {
        fill: #ffd764;
        stroke-miterlimit: 10;
        stroke-width: 2px;
      }

      .a, .b {
        stroke: #323c64;
      }

      .b {
        fill: #fff;
        stroke-linecap: round;
        stroke-linejoin: round;
        stroke-width: 1.5px;
      }

      .c {
        fill: #323c64;
      }
    </style>
  </defs>
  <title>download</title>
  <g>
    <circle class="a" cx="43.5" cy="43.5" r="42.5"/>
    <g>
      <g>
        <path class="b" d="M65.5,30.12V70a2.1,2.1,0,0,1-2.11,2.1H23.61A2.1,2.1,0,0,1,21.5,70V17a2.1,2.1,0,0,1,2.11-2.1H50.43a2.08,2.08,0,0,1,1.49.62l13,13.14A2.12,2.12,0,0,1,65.5,30.12Z"/>
        <path class="b" d="M65.5,29.26H55.08a3.77,3.77,0,0,1-3.77-3.77V14.88Z"/>
      </g>
      <path class="c" d="M52.9,53.47H50.46a1,1,0,0,1-1-1V37.32a1,1,0,0,0-1-1H38.57a1,1,0,0,0-1,1V52.2a1,1,0,0,1-1,1H34.1a1,1,0,0,0-.69,1.65l9.3,9.55a1,1,0,0,0,1.38,0l9.49-9.25A1,1,0,0,0,52.9,53.47Z"/>
    </g>
  </g>
</svg>
