<svg xmlns="http://www.w3.org/2000/svg" width="87" height="87" viewBox="0 0 87 87">
  <defs>
    <style>
      .a {
        fill: #ffd764;
        stroke-miterlimit: 10;
        stroke-width: 2px;
      }

      .a, .b {
        stroke: #323c64;
      }

      .b {
        fill: #fff;
        stroke-linecap: round;
        stroke-linejoin: round;
        stroke-width: 1.5px;
      }
    </style>
  </defs>
  <title>enlace</title>
  <g>
    <circle class="a" cx="43.5" cy="43.5" r="42.5"/>
    <g>
      <path class="b" d="M40.27,49.3h0a2.78,2.78,0,0,1-1.95-.81,13,13,0,0,1,0-18.38L49.89,18.56A13,13,0,0,1,68.23,36.9l-8.89,8.89a2.77,2.77,0,0,1-3.82,0,2.72,2.72,0,0,1,0-3.81l8.82-8.82A7.58,7.58,0,0,0,53.62,22.44L42.19,33.88a7.62,7.62,0,0,0,0,10.72A2.77,2.77,0,0,1,43,46.54a2.69,2.69,0,0,1-.79,2A2.77,2.77,0,0,1,40.27,49.3Z"/>
      <path class="b" d="M28,71.77A13,13,0,0,1,18.8,49.65l8.9-8.9a2.77,2.77,0,0,1,3.81,0,2.7,2.7,0,0,1,0,3.81l-8.82,8.82A7.58,7.58,0,0,0,33.41,64.1L44.84,52.67a7.63,7.63,0,0,0,0-10.73,2.74,2.74,0,0,1,0-3.89,2.69,2.69,0,0,1,1.94-.8h0a2.74,2.74,0,0,1,1.95.81,13,13,0,0,1,0,18.38L37.14,68A12.88,12.88,0,0,1,28,71.77Z"/>
    </g>
  </g>
</svg>
