<svg xmlns="http://www.w3.org/2000/svg" width="80" height="94.01" viewBox="0 0 80 94.01">
  <defs>
    <style>
      .a {
        fill: #ffd764;
      }

      .b {
        fill: #323c64;
      }
    </style>
  </defs>
  <title>escudo</title>
  <g>
    <path class="a" d="M80,20.37C79,38.3,75.91,54.78,66.89,69.63a68.46,68.46,0,0,1-24,23.47,5.19,5.19,0,0,1-6-.07C20.58,83.34,10.25,69.09,4.81,51.1A119.15,119.15,0,0,1,0,21.75C-.14,18.26,1,17,4.52,16.62c4.8-.58,8.93-2.85,13-5.22C23.37,8.05,29.22,4.75,35,1.41a9.35,9.35,0,0,1,10,.05c5.51,3.17,11.06,6.29,16.56,9.48,4.72,2.73,9.42,5.41,15.06,5.8A3.71,3.71,0,0,1,80,20.37Z"/>
    <g>
      <g>
        <path class="b" d="M26.69,37H40.87v3.8H35.94V58.86H31.62V40.79H26.69Z"/>
        <path class="b" d="M49.58,45.9v5.36c0,1,0,1.83.08,2.43A3.67,3.67,0,0,0,50,55.08a1.15,1.15,0,0,0,.75.6,5.12,5.12,0,0,0,1.32.13v2.6a4,4,0,0,1-.55.23,5.25,5.25,0,0,1-.58.16,3.93,3.93,0,0,1-.69.06,5.59,5.59,0,0,1-1.4-.21,3.67,3.67,0,0,1-1.51-.81,5,5,0,0,1-1.22-1.65,6.37,6.37,0,0,1-.51-2.77V45.9H43.09V42.46H45.6V37h4v5.47h3.49l-.51,3.44Z"/>
      </g>
      <g>
        <path class="b" d="M51.31,25.66a23.24,23.24,0,0,0-2.14-1L48.61,26a21.66,21.66,0,0,1,2,.95Z"/>
        <path class="b" d="M55.26,28.28c-.61-.5-1.26-1-1.91-1.41l-.82,1.23a21.16,21.16,0,0,1,1.79,1.32Z"/>
        <path class="b" d="M46.93,23.86c-.75-.22-1.52-.42-2.3-.57l-.28,1.45c.73.14,1.45.32,2.16.53Z"/>
        <path class="b" d="M58.61,31.61c-.5-.61-1-1.19-1.59-1.75l-1,1.05c.52.52,1,1.07,1.5,1.64Z"/>
        <path class="b" d="M62.56,44.69,64,44.54a23,23,0,0,0-.36-2.35l-1.44.3A20.11,20.11,0,0,1,62.56,44.69Z"/>
        <path class="b" d="M61.26,35.53a23.15,23.15,0,0,0-1.23-2l-1.22.82c.42.61.8,1.25,1.16,1.9Z"/>
        <path class="b" d="M17.43,49.27,16,49.42a20.64,20.64,0,0,0,.35,2.34l1.44-.29A20.11,20.11,0,0,1,17.43,49.27Z"/>
        <path class="b" d="M61.68,40.33l1.41-.43a22.89,22.89,0,0,0-.81-2.23l-1.35.57A21.63,21.63,0,0,1,61.68,40.33Z"/>
        <path class="b" d="M33,70.13a22.07,22.07,0,0,0,2.3.57l.28-1.44c-.72-.15-1.45-.33-2.16-.54Z"/>
        <path class="b" d="M28.64,68.32c.7.37,1.42.71,2.14,1L31.35,68c-.69-.28-1.36-.6-2-.94Z"/>
        <path class="b" d="M24.71,65.7c.61.5,1.25,1,1.9,1.41l.82-1.23a21.16,21.16,0,0,1-1.79-1.32Z"/>
        <path class="b" d="M18.72,58.43c.37.69.78,1.37,1.22,2l1.22-.82c-.41-.62-.8-1.26-1.15-1.91Z"/>
        <path class="b" d="M18.3,53.63l-1.41.43a22.89,22.89,0,0,0,.81,2.23l1.36-.57A21.7,21.7,0,0,1,18.3,53.63Z"/>
        <path class="b" d="M21.35,62.36c.5.6,1,1.19,1.6,1.75l1-1q-.79-.8-1.5-1.65Z"/>
        <path class="b" d="M40,24.32c.72,0,1.44,0,2.15.1L42.29,23c-.75-.07-1.52-.11-2.29-.11v-.37A24.56,24.56,0,0,0,15.82,43a2.48,2.48,0,0,0-1,.59,2.39,2.39,0,1,0,3.38-.06A2.23,2.23,0,0,0,18,43.3,22.34,22.34,0,0,1,40,24.69Z"/>
        <path class="b" d="M65.08,47.06a2.39,2.39,0,0,0-3.32,3.44,2.23,2.23,0,0,0,.24.19A22.34,22.34,0,0,1,40,69.32v.36c-.73,0-1.47,0-2.2-.1L37.66,71a22.77,22.77,0,0,0,2.34.12v.36A24.55,24.55,0,0,0,64.18,51a2.37,2.37,0,0,0,1-.59A2.4,2.4,0,0,0,65.08,47.06Z"/>
      </g>
    </g>
  </g>
</svg>
