<svg xmlns="http://www.w3.org/2000/svg" width="34" height="34" viewBox="0 0 34 34">
  <defs>
    <style>
      .a {
        fill: #ffd764;
        stroke: #323c64;
        stroke-miterlimit: 10;
        stroke-width: 2px;
      }

      .b {
        fill: #323c64;
      }
    </style>
  </defs>
  <title>flecha</title>
  <g>
    <circle class="a" cx="17" cy="17" r="16"/>
    <path class="b" d="M15.06,24.86l7-7.2a1,1,0,0,0,0-1.32l-7-7.2a.43.43,0,0,0-.64,0l-.65.66a.47.47,0,0,0,0,.66l6.07,6.21a.49.49,0,0,1,0,.66l-6.07,6.21a.47.47,0,0,0,0,.66l.65.66a.43.43,0,0,0,.64,0"/>
  </g>
</svg>
