<svg xmlns="http://www.w3.org/2000/svg" width="200" height="200" viewBox="0 0 200 200">
  <defs>
    <style>
      .a, .h {
        fill: #fff;
      }

      .b {
        fill: #323c64;
      }

      .c {
        fill: #ffd764;
      }

      .d, .e, .g {
        fill: none;
      }

      .d, .e, .f, .g, .h, .i, .j {
        stroke: #323c64;
      }

      .d, .e {
        stroke-miterlimit: 10;
      }

      .d, .f, .g, .h, .i, .j {
        stroke-width: 2px;
      }

      .d {
        stroke-dasharray: 7.43 7.43;
      }

      .e {
        stroke-width: 3px;
      }

      .f {
        fill: #f32735;
      }

      .f, .g, .h, .i, .j {
        stroke-linecap: round;
        stroke-linejoin: round;
      }

      .i {
        fill: #3fa9f5;
      }

      .j {
        fill: #ff931e;
      }
    </style>
  </defs>
  <title>hero-cap4</title>
  <g>
    <g>
      <circle class="a" cx="100" cy="100" r="99"/>
      <path class="b" d="M100,2A98,98,0,1,1,2,100,98.11,98.11,0,0,1,100,2m0-2A100,100,0,1,0,200,100,100,100,0,0,0,100,0Z"/>
    </g>
    <g>
      <circle class="c" cx="100" cy="100" r="75.7"/>
      <circle class="d" cx="100" cy="100" r="75.7" transform="translate(-20.3 174.35) rotate(-76.72)"/>
    </g>
    <path class="e" d="M24.3,100A75.7,75.7,0,0,1,100,24.3"/>
    <path class="e" d="M175.7,100A75.7,75.7,0,0,1,100,175.7"/>
    <g>
      <path class="a" d="M27.08,36.26a4.59,4.59,0,0,1-3.3-7.78,4.58,4.58,0,0,1,6.49-.12,4.59,4.59,0,0,1-3.19,7.9Z"/>
      <path class="b" d="M27.08,28.07h0a3.6,3.6,0,1,1-2.58,1.1,3.58,3.58,0,0,1,2.58-1.1m0-2A5.6,5.6,0,1,0,31,27.64a5.61,5.61,0,0,0-3.89-1.57Z"/>
    </g>
    <g>
      <path class="a" d="M170.55,174.73a4.6,4.6,0,1,1,4.59-4.68,4.59,4.59,0,0,1-4.59,4.68Z"/>
      <path class="b" d="M170.55,166.54h0a3.59,3.59,0,0,1,2.5,1,3.54,3.54,0,0,1,1.09,2.52,3.59,3.59,0,1,1-3.59-3.53m0-2a5.6,5.6,0,1,0,3.88,1.57,5.55,5.55,0,0,0-3.88-1.57Z"/>
    </g>
    <circle class="b" cx="170.26" cy="29.57" r="5.59"/>
    <circle class="b" cx="31.79" cy="173.04" r="5.59"/>
    <circle class="b" cx="24.3" cy="96.99" r="4"/>
    <circle class="b" cx="175.7" cy="102.98" r="4"/>
    <g>
      <path class="f" d="M140.33,89.76a10.9,10.9,0,0,0-12.1,3.06.75.75,0,0,1-1.33-.39,10.9,10.9,0,0,0-8.47-9.17c-4.7-.83-11.35-.46-12.79,10s12,33,12,33,23.46-11.66,27.94-21.18S144.73,91.63,140.33,89.76Z"/>
      <g>
        <path class="g" d="M84.56,58.07S97.16,55.42,97.16,74s-11.28,29.86-19.24,33.18"/>
        <path class="g" d="M67.3,58.07S54.7,55.42,54.7,74,66,103.86,73.94,107.18"/>
        <path class="g" d="M91.86,94.43c-4,6.62-9.4,10.91-13.82,12.75"/>
        <path class="g" d="M60.13,94.43c4,6.62,9.4,10.91,13.81,12.75"/>
        <path class="g" d="M76.59,114.47s-.76,31.21,19.25,31.28c18.61.07,25.8-30.95,25.8-30.95"/>
        <circle class="h" cx="122.76" cy="106.73" r="8.82"/>
        <circle class="i" cx="122.76" cy="106.73" r="3.31"/>
        <path class="b" d="M86.22,56.25l-2.3-1.61a2.12,2.12,0,0,0-3.34,1.73v3a2.12,2.12,0,0,0,3.21,1.82l2.3-1.38A2.12,2.12,0,0,0,86.22,56.25Z"/>
        <path class="b" d="M65.64,56.25,68,54.64a2.12,2.12,0,0,1,3.34,1.73v3a2.13,2.13,0,0,1-3.22,1.82l-2.3-1.38A2.12,2.12,0,0,1,65.64,56.25Z"/>
        <rect class="j" x="71.3" y="102.24" width="9.93" height="14.51" rx="4.25" ry="4.25"/>
      </g>
    </g>
  </g>
</svg>
