<svg xmlns="http://www.w3.org/2000/svg" width="200" height="200" viewBox="0 0 200 200">
  <defs>
    <style>
      .a, .h {
        fill: #fff;
      }

      .b {
        fill: #323c64;
      }

      .c {
        fill: #ffd764;
      }

      .d, .f, .k {
        fill: none;
      }

      .d, .e, .f, .g, .h, .i, .j, .k {
        stroke: #323c64;
      }

      .d, .k {
        stroke-miterlimit: 10;
      }

      .d, .e, .f, .g, .h, .i, .j {
        stroke-width: 2px;
      }

      .d {
        stroke-dasharray: 7.43 7.43;
      }

      .e {
        fill: #3fa9f5;
      }

      .e, .f, .g, .h, .i, .j {
        stroke-linecap: round;
        stroke-linejoin: round;
      }

      .g {
        fill: #ff931e;
      }

      .i {
        fill: #f32735;
      }

      .j {
        fill: #dfe2e2;
      }

      .k {
        stroke-width: 3px;
      }
    </style>
  </defs>
  <title>hero-cap3</title>
  <g>
    <g>
      <circle class="a" cx="100" cy="100" r="99"/>
      <path class="b" d="M100,2A98,98,0,1,1,2,100,98.11,98.11,0,0,1,100,2m0-2A100,100,0,1,0,200,100,100,100,0,0,0,100,0Z"/>
    </g>
    <g>
      <circle class="c" cx="100" cy="100" r="75.7"/>
      <circle class="d" cx="100" cy="100" r="75.7" transform="translate(-20.3 174.35) rotate(-76.72)"/>
    </g>
    <g>
      <path class="e" d="M61.33,120.87H72.26a12.25,12.25,0,0,1,12.25,12.25v0a0,0,0,0,1,0,0H49.08a0,0,0,0,1,0,0v0A12.25,12.25,0,0,1,61.33,120.87Z" transform="translate(133.59 253.99) rotate(-180)"/>
      <polyline class="f" points="49.22 121.15 66.8 78.97 84.22 120.85"/>
      <path class="g" d="M127.74,120.87h10.94a12.25,12.25,0,0,1,12.25,12.25v0a0,0,0,0,1,0,0H115.49a0,0,0,0,1,0,0v0a12.25,12.25,0,0,1,12.25-12.25Z" transform="translate(266.41 253.99) rotate(-180)"/>
      <polyline class="f" points="115.63 121.15 133.21 78.97 150.63 120.85"/>
      <path class="h" d="M100.73,50.69a9.93,9.93,0,0,0-3.89,19.07v69.83h7.78V69.76a9.93,9.93,0,0,0-3.89-19.07Zm0,13.79a3.86,3.86,0,1,1,3.86-3.86A3.86,3.86,0,0,1,100.73,64.48Z"/>
      <path class="i" d="M63,75.89H138.5a2,2,0,0,1,2,2v2.17a0,0,0,0,1,0,0H60.94a0,0,0,0,1,0,0V77.91A2,2,0,0,1,63,75.89Z"/>
      <path class="j" d="M100.73,133.62h0a14.05,14.05,0,0,1,14.05,14.05v1.63a0,0,0,0,1,0,0H86.68a0,0,0,0,1,0,0v-1.63A14.05,14.05,0,0,1,100.73,133.62Z"/>
    </g>
    <path class="k" d="M24.3,100A75.7,75.7,0,0,1,100,24.3"/>
    <path class="k" d="M175.7,100A75.7,75.7,0,0,1,100,175.7"/>
    <g>
      <path class="a" d="M27.08,36.26a4.59,4.59,0,0,1-3.3-7.78,4.58,4.58,0,0,1,6.49-.12,4.59,4.59,0,0,1-3.19,7.9Z"/>
      <path class="b" d="M27.08,28.07h0a3.6,3.6,0,1,1-2.58,1.1,3.58,3.58,0,0,1,2.58-1.1m0-2a5.59,5.59,0,0,0-3.88,9.62,5.59,5.59,0,0,0,7.91-.14,5.6,5.6,0,0,0-4-9.48Z"/>
    </g>
    <g>
      <path class="a" d="M170.55,174.73a4.61,4.61,0,1,1,3.3-1.41A4.52,4.52,0,0,1,170.55,174.73Z"/>
      <path class="b" d="M170.55,166.54h0a3.6,3.6,0,1,1,0,7.19,3.6,3.6,0,0,1,0-7.19m0-2a5.6,5.6,0,1,0,3.88,1.57,5.55,5.55,0,0,0-3.88-1.57Z"/>
    </g>
    <circle class="b" cx="170.26" cy="29.57" r="5.59"/>
    <circle class="b" cx="31.79" cy="173.04" r="5.59"/>
    <circle class="b" cx="24.3" cy="96.99" r="4"/>
    <circle class="b" cx="175.7" cy="102.98" r="4"/>
  </g>
</svg>
