<svg xmlns="http://www.w3.org/2000/svg" width="200" height="200" viewBox="0 0 200 200">
  <defs>
    <style>
      .a, .i {
        fill: #fff;
      }

      .b {
        fill: #323c64;
      }

      .c {
        fill: #ffd764;
      }

      .d, .e, .k {
        fill: none;
      }

      .d, .e, .f, .g, .h, .i, .j, .k {
        stroke: #323c64;
      }

      .d, .e {
        stroke-miterlimit: 10;
      }

      .d, .f, .g, .h, .i, .j, .k {
        stroke-width: 2px;
      }

      .d {
        stroke-dasharray: 7.43 7.43;
      }

      .e {
        stroke-width: 3px;
      }

      .f {
        fill: #dfe2e2;
      }

      .f, .g, .h, .i, .j, .k {
        stroke-linecap: round;
        stroke-linejoin: round;
      }

      .g {
        fill: #f32735;
      }

      .h {
        fill: #ff931e;
      }

      .j {
        fill: #3fa9f5;
      }
    </style>
  </defs>
  <title>hero-cap6</title>
  <g>
    <g>
      <circle class="a" cx="100" cy="100" r="99"/>
      <path class="b" d="M100,2A98,98,0,1,1,2,100,98.11,98.11,0,0,1,100,2m0-2A100,100,0,1,0,200,100,100,100,0,0,0,100,0Z"/>
    </g>
    <g>
      <circle class="c" cx="100" cy="100" r="75.7"/>
      <circle class="d" cx="100" cy="100" r="75.7" transform="translate(-41.42 100) rotate(-45)"/>
    </g>
    <path class="e" d="M24.3,100A75.7,75.7,0,0,1,100,24.3"/>
    <path class="e" d="M175.7,100A75.7,75.7,0,0,1,100,175.7"/>
    <g>
      <path class="a" d="M27.08,36.26A4.6,4.6,0,0,1,23.89,35a4.6,4.6,0,1,1,3.19,1.29Z"/>
      <path class="b" d="M27.08,28.07h0a3.6,3.6,0,1,1-2.58,1.1,3.58,3.58,0,0,1,2.58-1.1m0-2a5.59,5.59,0,0,0-3.88,9.62,5.59,5.59,0,0,0,7.91-.14,5.6,5.6,0,0,0-4-9.48Z"/>
    </g>
    <g>
      <path class="a" d="M170.55,174.73a4.61,4.61,0,1,1,3.3-1.41A4.52,4.52,0,0,1,170.55,174.73Z"/>
      <path class="b" d="M170.55,166.54h0a3.6,3.6,0,1,1,0,7.19,3.6,3.6,0,0,1,0-7.19m0-2a5.6,5.6,0,1,0,3.88,1.57,5.55,5.55,0,0,0-3.88-1.57Z"/>
    </g>
    <circle class="b" cx="170.26" cy="29.57" r="5.59"/>
    <circle class="b" cx="31.79" cy="173.04" r="5.59"/>
    <circle class="b" cx="24.3" cy="96.99" r="4"/>
    <circle class="b" cx="175.7" cy="102.98" r="4"/>
    <g>
      <g>
        <path class="f" d="M51.64,129.18h96.72a0,0,0,0,1,0,0v2a6.42,6.42,0,0,1-6.42,6.42H58.05a6.42,6.42,0,0,1-6.42-6.42v-2a0,0,0,0,1,0,0Z"/>
        <path class="g" d="M89.77,129.18h20.46a0,0,0,0,1,0,0v2.32a1.89,1.89,0,0,1-1.89,1.89H91.67a1.89,1.89,0,0,1-1.89-1.89v-2.32A0,0,0,0,1,89.77,129.18Z"/>
        <path class="h" d="M65,75.23h70a4.52,4.52,0,0,1,4.52,4.52v49.44a0,0,0,0,1,0,0h-79a0,0,0,0,1,0,0V79.74A4.52,4.52,0,0,1,65,75.23Z"/>
        <rect class="i" x="66.94" y="81.66" width="66.29" height="41.09"/>
      </g>
      <rect class="f" x="78.22" y="99.09" width="43.57" height="10.35"/>
      <path class="j" d="M95.72,60.39H59.32a5.47,5.47,0,0,0-5.47,5.46v22.4a5.47,5.47,0,0,0,5.47,5.46H87.16l8.56,8.86V93.71h0a5.47,5.47,0,0,0,5.47-5.46V65.85A5.47,5.47,0,0,0,95.72,60.39Z"/>
      <g>
        <line class="k" x1="65.48" y1="80.9" x2="80.16" y2="80.9"/>
        <line class="k" x1="65.48" y1="71.22" x2="91.98" y2="71.22"/>
      </g>
    </g>
  </g>
</svg>
