<svg xmlns="http://www.w3.org/2000/svg" width="200" height="200" viewBox="0 0 200 200">
  <defs>
    <style>
      .a, .f {
        fill: #fff;
      }

      .b, .i, .k {
        fill: #323c64;
      }

      .c {
        fill: #ffd764;
      }

      .d, .e, .j {
        fill: none;
      }

      .d, .e, .f, .g, .h, .i, .j, .k, .l, .m {
        stroke: #323c64;
      }

      .d, .e, .k {
        stroke-miterlimit: 10;
      }

      .d, .f, .g, .h, .i, .j, .l, .m {
        stroke-width: 2px;
      }

      .d {
        stroke-dasharray: 7.43 7.43;
      }

      .e {
        stroke-width: 3px;
      }

      .f, .g, .h, .i, .j, .l, .m {
        stroke-linecap: round;
        stroke-linejoin: round;
      }

      .g {
        fill: #dfe2e2;
      }

      .h {
        fill: #ff931e;
      }

      .l {
        fill: #3fa9f5;
      }

      .m {
        fill: #f32735;
      }
    </style>
  </defs>
  <title>hero-cap1</title>
  <g>
    <g>
      <circle class="a" cx="100" cy="100" r="99"/>
      <path class="b" d="M100,2A98,98,0,1,1,2,100,98.11,98.11,0,0,1,100,2m0-2A100,100,0,1,0,200,100,100,100,0,0,0,100,0Z"/>
    </g>
    <g>
      <circle class="c" cx="100" cy="100" r="75.7"/>
      <circle class="d" cx="100" cy="100" r="75.7" transform="translate(-41.42 100) rotate(-45)"/>
    </g>
    <path class="e" d="M24.3,100A75.7,75.7,0,0,1,100,24.3"/>
    <path class="e" d="M175.7,100A75.7,75.7,0,0,1,100,175.7"/>
    <g>
      <path class="a" d="M27.08,36.26a4.59,4.59,0,0,1-3.3-7.78,4.58,4.58,0,0,1,6.49-.12,4.59,4.59,0,0,1-3.19,7.9Z"/>
      <path class="b" d="M27.08,28.07h0a3.6,3.6,0,1,1-2.58,1.1,3.58,3.58,0,0,1,2.58-1.1m0-2A5.6,5.6,0,1,0,31,27.64a5.61,5.61,0,0,0-3.89-1.57Z"/>
    </g>
    <g>
      <path class="a" d="M170.55,174.73a4.6,4.6,0,1,1,4.59-4.68,4.59,4.59,0,0,1-4.59,4.68Z"/>
      <path class="b" d="M170.55,166.54h0a3.59,3.59,0,0,1,2.5,1,3.54,3.54,0,0,1,1.09,2.52,3.59,3.59,0,0,1-6.08,2.65,3.51,3.51,0,0,1-1.1-2.52,3.6,3.6,0,0,1,3.59-3.66m0-2a5.6,5.6,0,1,0,3.88,1.57,5.55,5.55,0,0,0-3.88-1.57Z"/>
    </g>
    <circle class="b" cx="170.26" cy="29.57" r="5.59"/>
    <circle class="b" cx="31.79" cy="173.04" r="5.59"/>
    <circle class="b" cx="24.3" cy="96.99" r="4"/>
    <circle class="b" cx="175.7" cy="102.98" r="4"/>
    <g>
      <g>
        <path class="f" d="M73.7,52.09l45.49-.1,14,14v80.9H67.61V58.2A6.11,6.11,0,0,1,73.7,52.09Z"/>
        <polygon class="g" points="133.23 66.39 119.19 51.99 119.12 66.39 133.23 66.39"/>
      </g>
      <g>
        <g>
          <rect class="h" x="124.1" y="80.42" width="6.04" height="48.45" transform="translate(204.68 249.88) rotate(-157.57)"/>
          <polygon class="i" points="120.67 128.19 115.39 133.06 115.08 125.89 120.67 128.19"/>
        </g>
        <polyline class="j" points="136.9 87.41 128.65 83.92 124.21 94.42"/>
        <path class="k" d="M137,78.07h.71a1.27,1.27,0,0,1,1.27,1.27V83a0,0,0,0,1,0,0h-3.26a0,0,0,0,1,0,0V79.34A1.27,1.27,0,0,1,137,78.07Z" transform="translate(42.19 -47.11) rotate(22.91)"/>
      </g>
      <g>
        <line class="j" x1="76.51" y1="73.79" x2="115.47" y2="73.79"/>
        <line class="j" x1="76.51" y1="83.84" x2="115.47" y2="83.84"/>
        <line class="j" x1="76.51" y1="93.89" x2="97.97" y2="93.89"/>
      </g>
      <line class="j" x1="103.15" y1="133.06" x2="110.2" y2="133.06"/>
      <line class="j" x1="76.51" y1="133.06" x2="95.79" y2="133.06"/>
      <circle class="l" cx="82.98" cy="112.74" r="6.47"/>
      <polygon class="m" points="97.86 119.2 104 108.34 110.2 119.2 97.86 119.2"/>
    </g>
  </g>
</svg>
