<svg xmlns="http://www.w3.org/2000/svg" width="200" height="200" viewBox="0 0 200 200">
  <defs>
    <style>
      .a, .f {
        fill: #fff;
      }

      .b {
        fill: #323c64;
      }

      .c {
        fill: #ffd764;
      }

      .d, .e {
        fill: none;
        stroke-miterlimit: 10;
      }

      .d, .e, .f, .g, .h, .i, .j {
        stroke: #323c64;
      }

      .d, .f, .g, .h, .i, .j {
        stroke-width: 2px;
      }

      .d {
        stroke-dasharray: 7.43 7.43;
      }

      .e {
        stroke-width: 3px;
      }

      .f, .g, .h, .i, .j {
        stroke-linecap: round;
        stroke-linejoin: round;
      }

      .g {
        fill: #dfe2e2;
      }

      .h {
        fill: #ff931e;
      }

      .i {
        fill: #f32735;
      }

      .j {
        fill: #3fa9f5;
      }
    </style>
  </defs>
  <title>hero-cap5</title>
  <g>
    <g>
      <circle class="a" cx="100" cy="100" r="99"/>
      <path class="b" d="M100,2A98,98,0,1,1,2,100,98.11,98.11,0,0,1,100,2m0-2A100,100,0,1,0,200,100,100,100,0,0,0,100,0Z"/>
    </g>
    <g>
      <circle class="c" cx="100" cy="100" r="75.7"/>
      <circle class="d" cx="100" cy="100" r="75.7" transform="translate(-41.42 100) rotate(-45)"/>
    </g>
    <path class="e" d="M24.3,100A75.7,75.7,0,0,1,100,24.3"/>
    <path class="e" d="M175.7,100A75.7,75.7,0,0,1,100,175.7"/>
    <g>
      <path class="a" d="M27.08,36.26a4.59,4.59,0,0,1-3.3-7.78,4.59,4.59,0,1,1,6.61,6.38A4.59,4.59,0,0,1,27.08,36.26Z"/>
      <path class="b" d="M27.08,28.07h0a3.6,3.6,0,1,1-2.58,1.1,3.58,3.58,0,0,1,2.58-1.1m0-2a5.59,5.59,0,0,0-3.88,9.62,5.59,5.59,0,0,0,7.91-.14,5.6,5.6,0,0,0-4-9.48Z"/>
    </g>
    <g>
      <path class="a" d="M170.55,174.73a4.59,4.59,0,1,1,3.31-1.41A4.57,4.57,0,0,1,170.55,174.73Z"/>
      <path class="b" d="M170.55,166.54h0a3.59,3.59,0,0,1,2.5,1,3.54,3.54,0,0,1,1.09,2.52,3.59,3.59,0,1,1-3.59-3.53m0-2a5.6,5.6,0,1,0,3.88,1.57,5.55,5.55,0,0,0-3.88-1.57Z"/>
    </g>
    <circle class="b" cx="170.26" cy="29.57" r="5.59"/>
    <circle class="b" cx="31.79" cy="173.04" r="5.59"/>
    <circle class="b" cx="24.3" cy="96.99" r="4"/>
    <circle class="b" cx="175.7" cy="102.98" r="4"/>
    <g>
      <rect class="f" x="66.68" y="78.71" width="66.63" height="56.22" rx="4.41" ry="4.41"/>
      <path class="g" d="M118.37,78.71c-1.79-7.2-10.21-13.64-18-13.64s-16.17,7.25-18,13.64L89,80.85c1.4-4.8,5.37-9,11.41-9s10,4.16,11.41,9.77Z"/>
      <path class="h" d="M117.72,78.71H128.9a4.43,4.43,0,0,1,4.42,4.41V92.3a4.43,4.43,0,0,1-4.42,4.41H71.1a4.43,4.43,0,0,1-4.42-4.41V83.12a4.43,4.43,0,0,1,4.42-4.41h46.62"/>
      <polygon class="i" points="110.49 121.25 104.53 121.25 104.53 127.21 96.28 127.21 96.28 121.25 90.32 121.25 90.32 113 96.28 113 96.28 107.04 104.53 107.04 104.53 113 110.49 113 110.49 121.25"/>
      <rect class="j" x="96.44" y="89.2" width="7.92" height="14.34" rx="3.05" ry="3.05" transform="translate(196.77 -4.04) rotate(90)"/>
    </g>
  </g>
</svg>
