<svg xmlns="http://www.w3.org/2000/svg" width="200" height="200" viewBox="0 0 200 200">
  <defs>
    <style>
      .a, .g {
        fill: #fff;
      }

      .b {
        fill: #323c64;
      }

      .c {
        fill: #ffd764;
      }

      .d, .e, .i {
        fill: none;
      }

      .d, .e, .f, .g, .h, .i, .j {
        stroke: #323c64;
      }

      .d, .e {
        stroke-miterlimit: 10;
      }

      .d, .f, .g, .h, .i, .j {
        stroke-width: 2px;
      }

      .d {
        stroke-dasharray: 7.43 7.43;
      }

      .e {
        stroke-width: 3px;
      }

      .f {
        fill: #ff931e;
      }

      .f, .g, .h, .i, .j {
        stroke-linecap: round;
        stroke-linejoin: round;
      }

      .h {
        fill: #f32735;
      }

      .j {
        fill: #3fa9f5;
      }
    </style>
  </defs>
  <title>hero-cap2</title>
  <g>
    <g>
      <circle class="a" cx="100" cy="100" r="99"/>
      <path class="b" d="M100,2A98,98,0,1,1,2,100,98.11,98.11,0,0,1,100,2m0-2A100,100,0,1,0,200,100,100,100,0,0,0,100,0Z"/>
    </g>
    <g>
      <circle class="c" cx="100" cy="100" r="75.7"/>
      <circle class="d" cx="100" cy="100" r="75.7" transform="translate(-20.3 174.35) rotate(-76.72)"/>
    </g>
    <path class="e" d="M24.3,100A75.7,75.7,0,0,1,100,24.3"/>
    <path class="e" d="M175.7,100A75.7,75.7,0,0,1,100,175.7"/>
    <g>
      <path class="a" d="M27.08,36.26a4.59,4.59,0,0,1-3.3-7.78,4.6,4.6,0,0,1,7.9,3.11,4.59,4.59,0,0,1-4.6,4.67Z"/>
      <path class="b" d="M27.08,28.07h0a3.6,3.6,0,1,1-2.58,1.1,3.58,3.58,0,0,1,2.58-1.1m0-2a5.59,5.59,0,0,0-3.88,9.62,5.59,5.59,0,0,0,7.91-.14,5.6,5.6,0,0,0-4-9.48Z"/>
    </g>
    <g>
      <path class="a" d="M170.55,174.73a4.59,4.59,0,1,1,3.31-1.41A4.57,4.57,0,0,1,170.55,174.73Z"/>
      <path class="b" d="M170.55,166.54h0a3.59,3.59,0,0,1,2.5,1,3.54,3.54,0,0,1,1.09,2.52,3.59,3.59,0,0,1-6.08,2.65,3.51,3.51,0,0,1-1.1-2.52,3.6,3.6,0,0,1,3.59-3.66m0-2a5.6,5.6,0,1,0,3.88,1.57,5.55,5.55,0,0,0-3.88-1.57Z"/>
    </g>
    <circle class="b" cx="170.26" cy="29.57" r="5.59"/>
    <circle class="b" cx="31.79" cy="173.04" r="5.59"/>
    <circle class="b" cx="24.3" cy="96.99" r="4"/>
    <circle class="b" cx="175.7" cy="102.98" r="4"/>
    <g>
      <path class="f" d="M100,136.47c-4.39,0-5.17-1.13-5.27-1.34a.72.72,0,0,0,0-.43.7.7,0,0,0-.45-.41c-5.16-1.64-15.4-3.94-22-3.94s-14.87,3-19.28,4.74a.87.87,0,0,1-.31.07.83.83,0,0,1-.82-.83V76.16a1.89,1.89,0,0,1,.54-1.32,7.09,7.09,0,0,1,3.57-2,.74.74,0,0,0,.6-.72V67.91a1.36,1.36,0,0,1,.92-1.27,55,55,0,0,1,16.29-2.72c10.07,0,18.75,3.07,25.8,9.12a.73.73,0,0,0,1,0c7-6.05,15.73-9.12,25.8-9.12a55.1,55.1,0,0,1,16.29,2.72,1.36,1.36,0,0,1,.92,1.27V72.1a.74.74,0,0,0,.6.72,7,7,0,0,1,3.56,2,1.86,1.86,0,0,1,.55,1.32v58.17a.84.84,0,0,1-.82.83.87.87,0,0,1-.31-.07c-4.41-1.77-12.78-4.74-19.28-4.74s-16.86,2.3-22,3.94a.7.7,0,0,0-.45.41.72.72,0,0,0,0,.43C105.17,135.34,104.39,136.47,100,136.47Z"/>
      <g>
        <path class="g" d="M70.25,125.29c12.15,0,24.1,4.28,28.68,6.12a.71.71,0,0,0,.29.05.77.77,0,0,0,.78-.78v-57a.76.76,0,0,0-.28-.59,40.08,40.08,0,0,0-12.38-7A43.45,43.45,0,0,0,72.7,63.53a53.24,53.24,0,0,0-16.31,2.58.79.79,0,0,0-.53.74v60a.77.77,0,0,0,.35.65.75.75,0,0,0,.43.13.71.71,0,0,0,.29,0A35.66,35.66,0,0,1,70.25,125.29Z"/>
        <path class="g" d="M127.3,63.53A43.45,43.45,0,0,0,112.66,66a40.08,40.08,0,0,0-12.38,7,.76.76,0,0,0-.28.59v57a.77.77,0,0,0,.78.78.71.71,0,0,0,.29-.05c4.58-1.84,16.54-6.12,28.68-6.12a35.66,35.66,0,0,1,13.32,2.3.71.71,0,0,0,.29,0,.75.75,0,0,0,.43-.13.77.77,0,0,0,.35-.65v-60a.79.79,0,0,0-.53-.74A53.24,53.24,0,0,0,127.3,63.53Z"/>
      </g>
      <path class="h" d="M110,67.72V90.15l5.43-5.43,5,3.41V64.33A50.55,50.55,0,0,0,110,67.72Z"/>
      <path class="i" d="M65.69,86.28s10-3.5,26,1.61"/>
      <path class="i" d="M65.69,96.81s10-3.5,26,1.61"/>
      <path class="i" d="M65.69,107.34s10-3.49,26,1.62"/>
      <path class="j" d="M108,102.91s12-5.6,28.25-1.9l0,9.5a57.41,57.41,0,0,0-28.25,1.89Z"/>
    </g>
  </g>
</svg>
