<svg xmlns="http://www.w3.org/2000/svg" xmlns:xlink="http://www.w3.org/1999/xlink" width="221.22" height="46.75" viewBox="0 0 221.22 46.75">
  <defs>
    <linearGradient id="a" x1="357.02" y1="150.62" x2="357.27" y2="150.62" gradientTransform="matrix(253.16, 0, 0, -174.83, -90384.02, 26359.7)" gradientUnits="userSpaceOnUse">
      <stop offset="0" stop-opacity="0.1"/>
      <stop offset="1" stop-opacity="0.2"/>
    </linearGradient>
  </defs>
  <title>logo-gmail</title>
  <g>
    <g>
      <path d="M57.43,46.69H3.84A3.84,3.84,0,0,1,0,42.86V4.14A3.84,3.84,0,0,1,3.84.31h53.6a3.84,3.84,0,0,1,3.83,3.83V42.86a3.8,3.8,0,0,1-3.83,3.83Z" style="fill: #e3e3e3"/>
      <path d="M7.66,46.69,30.58,28.26l.16-1-23.63-17-.05,35.6Z" style="fill: #231f20;opacity: 0.100000001490116;isolation: isolate"/>
      <path d="M3.84,46.69A3.8,3.8,0,0,1,0,42.86V4.09C0,2,1.7,1.57,3.84,1.57S7.66,2,7.66,4.09v42.6Z" style="fill: #d54b3d"/>
      <path d="M3.84,2.12c2.73,0,3.28.82,3.28,2V46.14H3.84A3.29,3.29,0,0,1,.55,42.86V4.09c0-1.2.55-2,3.28-2Zm0-.55C1.7,1.57,0,2,0,4.09V42.86a3.8,3.8,0,0,0,3.83,3.83H7.66V4.09C7.66,2,6,1.57,3.84,1.57Z" style="fill: #d72b27"/>
      <path d="M57.43,46.69H53.61V4c0-2.13,1.7-2.41,3.83-2.41s3.83.27,3.83,2.41V42.92a3.79,3.79,0,0,1-3.83,3.77Z" style="fill: #d54b3d"/>
      <path d="M57.43,2.12c2.46,0,3.28.49,3.28,1.86V42.92a3.29,3.29,0,0,1-3.28,3.28H54.15V4c0-1.42.82-1.86,3.28-1.86Zm0-.55c-2.13,0-3.83.27-3.83,2.41V46.75h3.83a3.8,3.8,0,0,0,3.83-3.83V4c0-2.13-1.7-2.41-3.83-2.41Z" style="fill: #d72b27"/>
      <path d="M41,46.69.33,5.68l2.14.87L30.8,26.95,61.26,4.61V42.92a3.79,3.79,0,0,1-3.83,3.77Z" style="fill: url(#a)"/>
      <path d="M30.58,28.26,1.65,7.26A3.86,3.86,0,0,1,.72,1.9a4,4,0,0,1,5.47-.82L30.64,18.85,55.25.86a3.8,3.8,0,0,1,5.36.88,3.8,3.8,0,0,1-.88,5.36L30.58,28.26Z" style="fill: #d54b3d"/>
      <path d="M57.43.64h0A3.34,3.34,0,0,1,60.11,2,3.36,3.36,0,0,1,59.4,6.6l-28.82,21L2,6.82a3.34,3.34,0,0,1-.82-4.59A3.44,3.44,0,0,1,3.89.86a3.16,3.16,0,0,1,2,.66L30.25,19.24l.33.22.33-.22,24.56-18a3.62,3.62,0,0,1,2-.6Zm0-.55a3.77,3.77,0,0,0-2.24.71l-24.61,18L6.13,1A3.81,3.81,0,0,0,3.84.31,3.94,3.94,0,0,0,.66,1.9a3.93,3.93,0,0,0,1,5.36L30.58,28.32,59.68,7.1a3.89,3.89,0,0,0,.88-5.36A3.75,3.75,0,0,0,57.43.09Z" style="fill: #d72b27"/>
    </g>
    <g>
      <path d="M117.1,23.16v1.78c0,12.29-8.67,21.73-21.19,21.73S73.29,35.87,73.29,23.46A23.3,23.3,0,0,1,114.73,8.68l-3.92,3.74A17.65,17.65,0,0,0,78.87,23.28c0,9.38,7.72,18.28,17.39,18.28,6.95,0,14.43-6,14.66-13.3H99.35V23.16Z" style="fill: gray"/>
      <path d="M127.19,21.44h.12a9.07,9.07,0,0,1,7.36-4.33c3.62,0,6.23,1.84,8,4.93a10,10,0,0,1,8.55-4.93c7.3,0,9.2,5.7,9.2,12V45.72h-5.34V30c0-3.56-.47-8.13-5.16-8.13-5.7,0-6.11,5.94-6.11,10.21V45.72h-5.34V31c0-3.62-.18-9.14-5.11-9.14-5.7,0-6.17,5.88-6.17,10.21V45.72h-5.34V17.94h5.34Z" style="fill: gray"/>
      <path d="M193.62,45.72h-5.34V41.39h-.12a11.39,11.39,0,0,1-9.44,5.28c-8.49,0-13.3-7.06-13.3-15,0-7.6,5-14.54,13.12-14.54a11.37,11.37,0,0,1,9.62,5.46h.12V17.94h5.34Zm-5-13.89c0-5.4-3.26-10-9-10-5.52,0-8.79,4.81-8.79,10s3.15,10.09,8.79,10.09C185.37,41.92,188.57,37.29,188.57,31.83Z" style="fill: gray"/>
      <path d="M208.1,5.24a3.68,3.68,0,0,1-7.36,0,3.68,3.68,0,1,1,7.36,0Zm-1,40.49h-5.34V17.94h5.34Z" style="fill: gray"/>
      <path d="M221.22,45.72h-5.34V0h5.34Z" style="fill: gray"/>
    </g>
  </g>
</svg>
