<svg xmlns="http://www.w3.org/2000/svg" width="197.86" height="78.94" viewBox="0 0 197.86 78.94">
  <title>logo-prezi</title>
  <g>
    <g>
      <path d="M93.28,39.3c0-4.85.09-9.71,0-14.56-.06-2.12.61-2.89,2.75-2.74,2.55.18,5.14-.1,7.68.14,6.87.67,12.17,6,12.14,11.91a12.52,12.52,0,0,1-11.93,12.06c-4,.16-4.39,1.75-4,4.81.1.93-.11,1.91,0,2.83.47,2.88-1,3.22-3.45,3.25s-3.31-.56-3.2-3.14C93.43,49,93.28,44.15,93.28,39.3Zm6.57-5.12c0,1.61,0,3.22,0,4.83,0,1.21.53,1.61,1.7,1.62,3.34,0,5.8-1.43,6.86-4.55s-.06-5.83-3-7.5c-3.7-2.1-5.54-1-5.55,3.18C99.84,32.57,99.84,33.38,99.85,34.18Z" style="fill: #2870ce"/>
      <path d="M151.41,29.81c4.91.06,8.79,2.81,9.39,6.65.65,4.17-1.7,7.57-6.66,9.26a27.77,27.77,0,0,1-6.3,1.27c-2.68.25-2.12,1.53-1,2.83,2.34,2.74,5.42,2.67,8,.86s3.71-.26,4.86,1.3c1.65,2.23-.9,2.73-1.95,3.48a12.1,12.1,0,0,1-13.67.29c-4.13-2.85-6.36-9.53-5.08-15.28C140.44,34,145.36,29.73,151.41,29.81Zm-6,11.9a17.27,17.27,0,0,0,6.86-1c1.6-.63,3.12-1.51,2.46-3.48-.59-1.78-2.37-2.2-4-1.86C147.47,36,145.9,38.3,145.43,41.7Z" style="fill: #2870ce"/>
      <path d="M185.17,30.14l-10.9,20.24c3,0,5.55.18,8,0,2.68-.24,2.8,1.23,2.66,3.18-.12,1.65.59,3.54-2.4,3.45-5.92-.18-11.84-.05-18.58-.05l10.8-20.36a51.27,51.27,0,0,0-6.6.05c-3.36.48-3.75-1.22-3.62-4,.09-1.89.58-2.59,2.54-2.55C172.9,30.21,178.7,30.14,185.17,30.14Z" style="fill: #2870ce"/>
      <path d="M125.28,56.8c-2.83.63-3.8-.34-3.64-3.1.22-3.89,0-7.81.06-11.72a11.31,11.31,0,0,0-1.83-6.5c-.76-1.16-2.91-2.25-.22-3.64,1.77-.91,3.59-3.19,5.34-.13,1.23,2.15,2.34,1.51,3.74.3a7.86,7.86,0,0,1,2.44-1.4c1.42-.51,3.41-1.71,3.8.87.26,1.74,2.72,4.26-1.22,5.42s-6.08,3.6-5.57,8.09c.33,2.93,0,5.93.1,8.88C128.39,56.29,127.78,57.61,125.28,56.8Z" style="fill: #2870ce"/>
      <path d="M197.09,43.91c0,3.1-.13,6.21,0,9.31.15,2.55-.22,3.8-3.36,3.83-3.37,0-3.23-1.64-3.2-4,.08-6.61.14-13.22,0-19.83-.07-2.51.69-3.2,3.17-3.2s3.62.59,3.43,3.34C196.91,36.89,197.09,40.4,197.09,43.91Z" style="fill: #2870ce"/>
      <path d="M197.86,22.56c-.36,2.27-1.55,3.76-3.91,3.8A3.53,3.53,0,0,1,190,22.71a3.56,3.56,0,0,1,4-4C196.44,18.82,197.52,20.35,197.86,22.56Z" style="fill: #2870ce"/>
    </g>
    <g>
      <path d="M39.35,67.41A27.76,27.76,0,0,1,11.45,39.66,27.95,27.95,0,1,1,39.35,67.41Zm-25.52-27C14.82,55.07,26.59,66,40.38,65c14.49-1,25.6-12.94,24.68-26.58C64.08,24,52.11,13,38.39,13.87,23.83,14.84,12.89,26.68,13.82,40.45Z" style="fill: #2870ce"/>
      <path d="M5.28,37.79l-3.93-.26C-.35,37.43.05,36.2.1,35.18s.3-1.95,1.67-1.75c1.58.23,3.17.44,4.75.71,1.15.19,2.34.19,2.09,2.05-.24,1.7-1.2,1.73-2.46,1.61A3.47,3.47,0,0,0,5.28,37.79Z" style="fill: #3d91fd"/>
      <path d="M73,37.85a8.94,8.94,0,0,0-1.27,0c-.93.06-1.37-.33-1.38-1.25s-.64-1.89.58-2.12c2.36-.45,4.75-1.35,7.13-.82,1,.23.63,1.85.66,2.87,0,.83-.65,1-1.3,1C76.28,37.67,75.12,37.72,73,37.85Z" style="fill: #3d91fd"/>
      <path d="M74.44,41.1c1.54.73,4.9-1.28,4.26,2.93-.18,1.22-.74,1.63-1.9,1.44-1.56-.26-3.13-.46-4.69-.72-1-.17-2.06-.23-1.87-1.87s.76-2,2.2-1.8A14.54,14.54,0,0,0,74.44,41.1Z" style="fill: #3d91fd"/>
      <path d="M11.39,11.93c.65,0,5.85,5,5.68,5.49a7.3,7.3,0,0,1-1.18,1.78c-.55.7-1.08.36-1.62-.07-1.48-1.2-3-2.37-4.47-3.58-.47-.39-1.12-.81-.55-1.54S10.41,12.24,11.39,11.93Z" style="fill: #3d91fd"/>
      <path d="M4.65,41.12c.85,0,1.7,0,2.55,0C8.48,41,8.37,42,8.57,42.83s0,1.47-1,1.64l-4.39.76c-1.45.26-2.91.89-3.18-1.6s1.2-2.26,2.71-2.32l1.91-.1Z" style="fill: #3d91fd"/>
      <path d="M17.47,61c-1.26,2.2-3.07,3.27-4.3,4.85-1.36,1.74-2.33,1.2-3.46-.23C9,64.64,8.87,64,9.9,63.24c1.45-1.08,2.84-2.25,4.24-3.4C16.24,58.13,16,61.09,17.47,61Z" style="fill: #3d91fd"/>
      <path d="M67.58,67.11c-1.21-.22-1.69-1.14-2.37-1.77-1-.94-1.93-2-2.94-2.92-.86-.8-.63-1.42.12-2.11.59-.55,1-1.48,2-.61C66,61,67.57,62.23,69.14,63.49c.54.44.88.94.29,1.59Z" style="fill: #3d91fd"/>
      <path d="M57.06,5C56,7,55,9.21,53.7,11.26c-.48.78-1.34-.06-2-.28-.86-.28-1.12-.82-.75-1.71C51.68,7.52,52.36,5.74,53,4c.28-.75.58-1.44,1.57-.95S56.7,3.5,57.06,5Z" style="fill: #3d91fd"/>
      <path d="M34.5,7.89c.17.85-.6,1-1.52,1.23s-1.7.27-2-.85c-.5-1.84-1-3.69-1.47-5.54C29.15,1.42,30,1,31,.84s2.17-.67,2.43,1C33.72,3.78,34.1,5.66,34.5,7.89Z" style="fill: #3d91fd"/>
      <path d="M28,9.63c.12,1.16-.77,1.22-1.39,1.56s-1.38.51-1.84-.4Q23.44,8.1,22,5.43c-.58-1.09.08-1.63.94-1.88s1.87-1.44,2.49-.26A61.49,61.49,0,0,1,28,9.63Z" style="fill: #3d91fd"/>
      <path d="M77.08,27.55c.49,1.67-.17,1.88-1,2.08-1.74.43-3.49.84-5.18,1.41-1.24.42-1.64-.08-2.06-1.14s-.2-1.78.92-2.19a35.71,35.71,0,0,0,4.12-1.6C76.31,24.89,76.92,26.27,77.08,27.55Z" style="fill: #3d91fd"/>
      <path d="M67.47,11.64a26.49,26.49,0,0,1,2.13,2.48c.47.71-.25,1.13-.71,1.51-1.31,1.08-2.69,2.07-3.94,3.21-1.07,1-1.73.62-2.62-.26s-.63-1.58.17-2.34c1.23-1.16,2.4-2.39,3.62-3.57A16.6,16.6,0,0,1,67.47,11.64Z" style="fill: #3d91fd"/>
      <path d="M70.58,47.76c2,.54,3.71,1.09,5.47,1.45,1.59.33,1.35,1.16,1,2.31s-.8,2.19-2.39,1.52-3.15-1.22-4.73-1.81c-1-.38-1.59-.9-1-2.12C69.29,48.2,69.47,47.17,70.58,47.76Z" style="fill: #3d91fd"/>
      <path d="M41.44,75.58c-.55,1,1.33,3-1.36,3.3-1.76.19-3.23.07-2.77-2.42A27,27,0,0,0,37.7,72c0-1.32.68-1.56,1.81-1.54s1.57.31,1.59,1.43S41.31,74.24,41.44,75.58Z" style="fill: #3d91fd"/>
      <path d="M54.26,76.05c-.9.18-1-.53-1.25-1.11-.64-1.68-1.2-3.4-1.93-5-.54-1.2-.11-1.64,1-2.15s1.75-.35,2.27.73c.68,1.43,1.45,2.82,2.13,4.26A2.24,2.24,0,0,1,54.26,76.05Z" style="fill: #3d91fd"/>
      <path d="M34.26,72.27c-.17,1.06-.45,2.52-.62,4s-.76,2.25-2.47,1.91-1.95-1.24-1.46-2.73.81-2.86,1.13-4.3,1-1.59,2.31-1.32S34.62,70.79,34.26,72.27Z" style="fill: #3d91fd"/>
      <path d="M3.47,53.3C1.76,53.13,2,51.75,1.6,50.87s.06-1.33,1-1.55c1.86-.45,3.72-.94,5.55-1.49.92-.28,1.42,0,1.65.88.17.68.94,1.55,0,2C7.69,51.71,5.48,52.49,3.47,53.3Z" style="fill: #3d91fd"/>
      <path d="M3.63,25.69c1.89.75,4,1.5,6,2.41,1.16.53.32,1.43.14,2.18-.22.92-.75,1.11-1.64.84-1.81-.55-3.63-1.07-5.47-1.5-1.1-.26-1.42-.78-1-1.78S1.86,25.59,3.63,25.69Z" style="fill: #3d91fd"/>
      <path d="M24.67,76.06a2.27,2.27,0,0,1-2.29-3.19C23,71.43,23.8,70,24.49,68.62c.48-1,1-1.4,2.2-.87s1.55,1.13,1,2.38c-.7,1.53-1.21,3.15-1.82,4.72C25.63,75.41,25.57,76.15,24.67,76.06Z" style="fill: #3d91fd"/>
      <path d="M74.23,58a2.25,2.25,0,0,1-3.41,1.95c-1.36-.83-2.66-1.77-4-2.6-1.06-.65-1.09-1.37-.52-2.39s1.26-1.22,2.32-.63c1.48.83,3,1.52,4.55,2.31C73.68,56.89,74.38,57.12,74.23,58Z" style="fill: #3d91fd"/>
      <path d="M74.2,20.88c.23.87-.47,1.11-1,1.39-1.5.8-3,1.51-4.53,2.33-1,.54-1.67.63-2.35-.51s-.42-1.92.7-2.59c1.27-.76,2.48-1.64,3.74-2.42A2.17,2.17,0,0,1,74.2,20.88Z" style="fill: #3d91fd"/>
      <path d="M37.45,3.87c0-.63,0-1.27-.12-1.9-.24-1.61.56-2,2-2,1.27,0,2.36.05,2.16,1.82s-.35,3.37-.39,5.05c0,1.28-.64,1.55-1.78,1.57-1.31,0-1.61-.6-1.61-1.73,0-.95-.14-1.89-.22-2.84Z" style="fill: #3d91fd"/>
      <path d="M44.52,7c.21-1.41.53-3,.67-4.54C45.35.65,46.35.53,47.81.81c1.61.3,1.72,1.25,1.36,2.55C48.75,4.88,48.32,6.41,48,8c-.3,1.28-1.15,1.24-2.19,1.13C44.49,8.94,44.14,8.3,44.52,7Z" style="fill: #3d91fd"/>
      <path d="M22.3,66a49.63,49.63,0,0,1-4.3,6c-.71.75-1.75-.72-2.59-1.26s-.44-1.24,0-1.84l3.42-4.16c.5-.61,1-1.11,1.86-.51C21.32,64.71,22.05,65,22.3,66Z" style="fill: #3d91fd"/>
      <path d="M64.29,9c-1.88,2.17-3.44,4.16-5.22,5.92-.57.57-1.27-.45-1.84-.86A1.1,1.1,0,0,1,57,12.36C58.08,10.68,59.16,9,60.24,7.3c.41-.63.9-.85,1.55-.33Z" style="fill: #3d91fd"/>
      <path d="M10.87,25a62.41,62.41,0,0,1-5.94-3.19c-1.13-.76.15-1.67.5-2.46s.9-1.46,2-.74c1.58,1.08,3.2,2.11,4.82,3.14a1.24,1.24,0,0,1,.49,1.89C12.31,24.25,12.15,25.11,10.87,25Z" style="fill: #3d91fd"/>
      <path d="M6.95,60.6c-1.42,0-1.48-1.16-2-1.87s-.68-1.35.27-1.84q2.69-1.39,5.37-2.79a1.17,1.17,0,0,1,1.81.63c.33.65,1,1.41.26,2C10.79,58.13,8.8,59.36,6.95,60.6Z" style="fill: #3d91fd"/>
      <path d="M17.45,6.64a1.62,1.62,0,0,1,1.32,1c1,1.51,1.93,3,2.94,4.5.56.82.65,1.45-.3,2.09s-1.56,1.14-2.43.06c-1.05-1.32-2.16-2.59-3.19-3.93-.41-.53-1.37-1.06-.71-1.83A14.38,14.38,0,0,1,17.45,6.64Z" style="fill: #3d91fd"/>
      <path d="M44.45,71.84c-.33-1.8.64-1.94,1.64-2,1.27-.09,3.29,4.19,3.24,6.71a1.71,1.71,0,0,1-2.47,1.59C43.62,76.94,45.68,73.53,44.45,71.84Z" style="fill: #3d91fd"/>
      <path d="M59,63.62a67.11,67.11,0,0,1,4.81,6.12c.62,1-1,1.39-1.61,2s-1.43.75-2-.29c-1-1.65-2.15-3.19-3-4.87S57.94,64.61,59,63.62Z" style="fill: #3d91fd"/>
      <path d="M39.33,62.84A23.39,23.39,0,1,1,62.75,39.47,23.36,23.36,0,0,1,39.33,62.84Zm21-23.17A20.58,20.58,0,0,0,39.75,18.48,20.7,20.7,0,0,0,18.41,39.23,20.63,20.63,0,0,0,39,60.39C51,60.52,60.19,51.6,60.29,39.67Z" style="fill: #2870ce"/>
      <path d="M58.21,39.36a18.82,18.82,0,1,1-18.79-18.7A19,19,0,0,1,58.21,39.36ZM39.39,23.09a16.37,16.37,0,1,0,.14,32.73,16.12,16.12,0,0,0,16.2-16.58A16.19,16.19,0,0,0,39.39,23.09Z" style="fill: #2870ce"/>
      <path d="M37.83,39.45q0-5.76,0-11.52c0-1.09-.1-2.16,1.53-2.21S41,26.64,41,27.8q0,11.68,0,23.36c0,1.18-.09,2.1-1.67,2S37.83,52,37.83,51Q37.82,45.21,37.83,39.45Z" style="fill: #3d91fd"/>
      <path d="M44.11,39.26c0-3.4,0-6.8,0-10.19,0-.71-.53-2,.79-2a2.1,2.1,0,0,1,2.13,1.61,9.63,9.63,0,0,1,.13,2.21q0,8.6,0,17.2c0,.94.27,2-.44,2.75a3,3,0,0,1-1.9,1c-1.11,0-.72-1.09-.73-1.74C44.09,46.48,44.11,42.87,44.11,39.26Z" style="fill: #3d91fd"/>
      <path d="M34.75,39.42c0,3.51,0,7,0,10.52,0,.7.5,2-.94,1.85A1.93,1.93,0,0,1,31.86,50c-.05-1,0-1.91,0-2.87q0-8.13,0-16.26a12.42,12.42,0,0,1,.1-2.22A1.87,1.87,0,0,1,34,27.11c1.09.08.7,1.14.71,1.79C34.78,32.41,34.75,35.92,34.75,39.42Z" style="fill: #3d91fd"/>
      <path d="M50.21,47.12V31.87C54.09,35.61,54.11,43.13,50.21,47.12Z" style="fill: #3d91fd"/>
      <path d="M28.63,31.46v15.6C24.88,44.26,24.79,35.4,28.63,31.46Z" style="fill: #3d91fd"/>
    </g>
  </g>
</svg>
