<svg xmlns="http://www.w3.org/2000/svg" width="205.26" height="74.84" viewBox="0 0 205.26 74.84">
  <title>logo-lync</title>
  <g>
    <g>
      <path d="M110.55,25.76c4,10.34,8,20.48,11.94,30.67,2.1,5.5-3,13.57-8.6,13.66-1.49,0-2.59-.3-2.52,1.86.05,1.87.59,2.79,2.57,2.89a10.68,10.68,0,0,0,9.2-4.12,27.28,27.28,0,0,0,4.07-7.57C132.07,50.74,137,38.39,142,26c-4-1.46-5.75-.23-7,3.42-2.58,7.83-5.63,15.51-8.77,24-2.94-8.27-5.89-15.73-8.19-23.39C116.88,26,114.95,24.55,110.55,25.76Z" style="fill: #fdfefe"/>
      <path d="M151.86,30.41c-.42-2.78.71-5.2-3-5.13s-2.66,2.5-2.68,4.33q-.12,12.55,0,25.09c0,1.81-1.19,4.38,2.61,4.45s2.83-2.28,2.85-4.25c0-5,0-10,0-15.06.07-6.09,3.81-10.49,8.95-10.66s7.85,3.26,8.22,9.93c.07,1.21,0,2.43,0,3.65,0,4.71.05,9.43,0,14.14,0,1.93,1,2.22,2.59,2.18s2.77-.11,2.71-2.1c-.23-7.89.75-15.85-.6-23.68-1.08-6.27-6.59-9.73-12.88-8.57A13.82,13.82,0,0,0,151.86,30.41Z" style="fill: #fdfefe"/>
      <path d="M88.58,35.18c0,6.84.1,13.69-.05,20.52-.05,2.52.61,3.51,3.29,3.43,6.08-.17,12.16-.07,18.24,0,1.77,0,3.19.1,3.26-2.48.08-2.88-1.56-2.71-3.48-2.69-3.8,0-7.62-.2-11.4.08-3.35.25-4.44-.69-4.36-4.23.24-11.55,0-23.11.13-34.66,0-2.31-.61-3.22-3.07-3.19s-2.6,1.32-2.59,3.19C88.61,21.8,88.58,28.49,88.58,35.18Z" style="fill: #fdfefe"/>
      <path d="M204.76,53.21c-8.54,3-13.42,2.37-16.88-2.18s-3.32-12.37.11-17.16,8.14-5.61,17.06-2.69c0-2.33,1.26-4.75-2.33-5.86-6.83-2.11-15.11.27-19.26,5.85-4.5,6-4.83,15.73-.74,21.91,3.76,5.69,11.24,8.11,18.64,6.1C204.55,58.31,206,56.57,204.76,53.21Z" style="fill: #fdfefe"/>
      <path d="M110.55,25.76c4.4-1.2,6.34.23,7.54,4.25,2.3,7.66,5.25,15.12,8.19,23.39,3.14-8.5,6.19-16.19,8.77-24,1.2-3.65,3-4.88,7-3.42-5,12.44-9.94,24.79-14.81,37.18a27.28,27.28,0,0,1-4.07,7.57,10.68,10.68,0,0,1-9.2,4.12c-2-.09-2.51-1-2.57-2.89-.06-2.16,1-1.83,2.52-1.86,5.61-.09,10.7-8.17,8.6-13.66C118.6,46.24,114.58,36.09,110.55,25.76Z" style="fill: #0a74c6"/>
      <path d="M151.86,30.41a13.82,13.82,0,0,1,8.78-5.67c6.29-1.16,11.8,2.3,12.88,8.57,1.35,7.83.38,15.78.6,23.68.06,2-1.21,2.06-2.71,2.1s-2.61-.24-2.59-2.18c.07-4.71,0-9.43,0-14.14,0-1.22,0-2.44,0-3.65-.37-6.67-3.22-10.09-8.22-9.93s-8.88,4.57-8.95,10.66c-.06,5,0,10,0,15.06,0,2,.81,4.31-2.85,4.25s-2.59-2.64-2.61-4.45q-.14-12.54,0-25.09c0-1.83-1.11-4.25,2.68-4.33S151.44,27.64,151.86,30.41Z" style="fill: #0a74c6"/>
      <path d="M88.58,35.18c0-6.69,0-13.38,0-20.07,0-1.87.1-3.16,2.59-3.19s3.09.88,3.07,3.19c-.09,11.55.11,23.11-.13,34.66-.07,3.54,1,4.48,4.36,4.23,3.78-.28,7.6,0,11.4-.08,1.92,0,3.56-.19,3.48,2.69-.07,2.58-1.49,2.49-3.26,2.48-6.08,0-12.17-.13-18.24,0-2.68.08-3.34-.92-3.29-3.43C88.67,48.87,88.58,42,88.58,35.18Z" style="fill: #0f76c7"/>
      <path d="M204.76,53.21c1.27,3.36-.22,5.1-3.4,6-7.4,2-14.88-.4-18.64-6.1-4.08-6.18-3.76-15.86.74-21.91,4.15-5.58,12.43-8,19.26-5.85,3.59,1.11,2.31,3.53,2.33,5.86C196.14,28.27,191.47,29,188,33.87s-3.49,12.72-.11,17.16S196.22,56.2,204.76,53.21Z" style="fill: #0a74c6"/>
    </g>
    <g>
      <path d="M42,70.53c.36.52.65.7.75-.14L42.83.62C42.72.4,42.58,0,42.51,0,29,2.34,15.58,4.72,2.12,7,.62,7.29,0,7.8,0,9.38q.06,26,0,51.92c0,1.34.15,2.25,1.91,2.53C15.28,66,28.62,68.29,42,70.55Z" style="fill: #fdfefe"/>
      <path d="M53.43,43.75c3.79,4.8,7.07,9,10.41,13.17a3.39,3.39,0,0,0,4.8.84c1.54-1,2.58-2.74,1.35-4.2-2.43-2.9-.79-3.8,1.59-5.25a15.44,15.44,0,0,0,6.09-18.84C75.12,23,68.5,19,61.92,20.21c2.52,3.1,5,6,7.34,9s3,6.2,1.32,9.66-4.59,4.95-8.4,4.85C59.56,43.7,56.93,43.75,53.43,43.75Z" style="fill: #fdfefe"/>
      <path d="M47.28,30.08c4.53-5.53,10.92-2.78,16.54-4L54.14,13.76c-1.51-1.93-3.45-2.37-5.41-1S47,16,48.15,17.89c.47.74,1.83,1.79.95,2.35C44.86,22.91,48.33,26.84,47.28,30.08Z" style="fill: #fdfefe"/>
      <path d="M56.14,50.6,47.34,39.86C46.61,50,47.09,50.65,56.14,50.6Z" style="fill: #fdfefe"/>
      <path d="M42,70.55c-13.34-2.25-26.68-4.55-40-6.71C.17,63.55,0,62.65,0,61.31q0-26,0-51.92C0,7.8.62,7.29,2.12,7,15.58,4.72,29,2.34,42.51,0c.07,0,.22.4.33.62-1.26,1.44-.68,3.18-.68,4.78Q42,38,42,70.55Zm-29-50.83a28.87,28.87,0,0,0,0,14.08c0,4.14.31,8.3.07,12.42-.17,2.94.88,3.85,3.67,3.82,3.45,0,6.9.3,10.35.4,1.78.05,3.84.91,3.86-2.47,0-2.91-1.08-3.58-3.62-3.35-1.37.12-2.77-.14-4.14,0-2.93.26-4.17-.66-4-3.92.24-5.79,0-11.6-.1-17.41C18.91,18.17,18.17,17.73,12.92,19.72Z" style="fill: #0473c6"/>
      <path d="M53.43,43.75c3.5,0,6.12-.05,8.74,0,3.82.1,6.73-1.38,8.4-4.85s1-6.72-1.32-9.66-4.82-5.95-7.34-9C68.5,19,75.12,23,77.68,29.46a15.44,15.44,0,0,1-6.09,18.84c-2.39,1.45-4,2.35-1.59,5.25,1.23,1.47.19,3.24-1.35,4.2a3.39,3.39,0,0,1-4.8-.84C60.51,52.76,57.23,48.56,53.43,43.75Z" style="fill: #0672c6"/>
      <path d="M47.28,30.08c1.06-3.24-2.41-7.18,1.82-9.85.89-.56-.48-1.6-.95-2.35-1.18-1.88-1.31-3.77.58-5.11s3.89-.95,5.41,1l9.68,12.33C58.2,27.3,51.81,24.56,47.28,30.08Z" style="fill: #0473c6"/>
      <path d="M42,70.55Q42,38,42.15,5.4c0-1.6-.58-3.34.68-4.78q-.05,34.89-.1,69.77a2.15,2.15,0,0,0-.75.14Z" style="fill: #0165c1"/>
      <path d="M56.14,50.6c-9,.05-9.53-.55-8.79-10.74Z" style="fill: #0672c6"/>
      <path d="M42,70.53a2.15,2.15,0,0,1,.75-.14C42.63,71.23,42.34,71,42,70.53Z" style="fill: #0473c6"/>
      <path d="M12.92,19.72V33.8A28.87,28.87,0,0,1,12.92,19.72Z" style="fill: #0165c1"/>
    </g>
  </g>
</svg>
