<svg xmlns="http://www.w3.org/2000/svg" width="70.14" height="66.64" viewBox="0 0 70.14 66.64">
  <title>logo-lg</title>
  <g>
    <circle cx="35.07" cy="33.32" r="31.82" style="fill: none;stroke: #323c64;stroke-miterlimit: 10;stroke-width: 2px;stroke-dasharray: 3.122924566268921,3.122924566268921"/>
    <path d="M3.25,33.32A31.82,31.82,0,0,1,35.07,1.5" style="fill: none;stroke: #323c64;stroke-miterlimit: 10;stroke-width: 3px"/>
    <path d="M66.89,33.32A31.82,31.82,0,0,1,35.07,65.14" style="fill: none;stroke: #323c64;stroke-miterlimit: 10;stroke-width: 3px"/>
    <g>
      <path d="M17,19.71H36.24v5.16h-6.7V49.43H23.68V24.87H17Z" style="fill: #323c64"/>
      <path d="M48.08,31.82v7.28q0,2.07.11,3.3a5,5,0,0,0,.45,1.88,1.55,1.55,0,0,0,1,.82,7.43,7.43,0,0,0,1.79.17v3.54a5.54,5.54,0,0,1-.73.3,5.13,5.13,0,0,1-1.73.3,7.67,7.67,0,0,1-1.9-.28A5.2,5.2,0,0,1,45,48a6.71,6.71,0,0,1-1.66-2.25A8.67,8.67,0,0,1,42.68,42V31.82H39.27V27.14h3.41V19.71h5.4v7.43h4.75l-.69,4.68Z" style="fill: #323c64"/>
    </g>
    <circle cx="3.25" cy="30.89" r="3.25" transform="translate(-21.23 11.78) rotate(-46.02)" style="fill: #323c64"/>
    <circle cx="66.89" cy="35.73" r="3.25" transform="translate(-5.27 59.04) rotate(-46.02)" style="fill: #323c64"/>
  </g>
</svg>
