<svg xmlns="http://www.w3.org/2000/svg" width="65.65" height="61.9" viewBox="0 0 65.65 61.9">
  <title>logo-sm</title>
  <g>
    <circle cx="32.82" cy="30.95" r="29.78" style="fill: none;stroke: #323c64;stroke-miterlimit: 10;stroke-width: 1.40398009634916px;stroke-dasharray: 2.923015832901001,2.923015832901001"/>
    <path d="M3,31A29.78,29.78,0,0,1,32.82,1.17" style="fill: none;stroke: #323c64;stroke-miterlimit: 10;stroke-width: 2.33996682724858px"/>
    <path d="M62.6,31A29.78,29.78,0,0,1,32.82,60.73" style="fill: none;stroke: #323c64;stroke-miterlimit: 10;stroke-width: 2.33996682724858px"/>
    <g>
      <path d="M15.89,18.22h18V23H27.66V46h-5.5V23H15.89Z" style="fill: #323c64"/>
      <path d="M45,29.55v6.82q0,1.94.1,3.09a4.7,4.7,0,0,0,.42,1.76,1.46,1.46,0,0,0,.95.77,7,7,0,0,0,1.68.16v3.32a5.18,5.18,0,0,1-.69.28,4.8,4.8,0,0,1-1.62.28,7.18,7.18,0,0,1-1.78-.26,4.86,4.86,0,0,1-1.92-1,6.28,6.28,0,0,1-1.56-2.1,8.11,8.11,0,0,1-.65-3.52V29.55H36.75V25.17h3.19v-7H45v7h4.45l-.65,4.38Z" style="fill: #323c64"/>
    </g>
    <circle cx="3.04" cy="28.68" r="3.04" transform="translate(-19.7 10.95) rotate(-46.02)" style="fill: #323c64"/>
    <circle cx="62.6" cy="33.21" r="3.04" transform="translate(-4.77 55.19) rotate(-46.02)" style="fill: #323c64"/>
  </g>
</svg>
