<svg xmlns="http://www.w3.org/2000/svg" width="224.58" height="53.19" viewBox="0 0 224.58 53.19">
  <title>logo-dropbox</title>
  <g>
    <g>
      <path d="M40.33,0,56.81,11c-3.38,2.71-6.59,5.37-9.91,7.89-1.31,1-1.5,1.56-.08,2.65,3.35,2.55,6.58,5.25,10.07,8.07-5.37,3.5-10.62,6.87-15.79,10.35-1.24.83-1.79,0-2.52-.61l-9.76-8c-.32-1,.57-1.22,1.16-1.59l6.53-4.05,8.75-5.47L28.44,9.9,39.83,0Z" style="fill: #047fe4"/>
      <path d="M27.88,31.31c-3.2,2.61-6.48,5.12-9.55,7.86-1.41,1.26-2.36,1.13-3.81.15C9.73,36.09,4.85,33,0,29.85c0-1,1-1.29,1.56-1.79,2.69-2.19,5.38-4.4,8.17-6.46,1.33-1,1.56-1.55.09-2.65C6.9,16.78,4.2,14.31,1.25,12.19-.44,11,.15,10.52,1.48,9.71,4.37,7.95,7.23,6.13,10,4.21,12,2.83,14.37,1.94,16,0h1c2.77,3.18,6.23,5.6,9.46,8.25,1.75,1.44,1.4,2-.3,3-4.9,2.88-9.71,5.92-14.79,9,5.14,3.21,10.11,6.29,15.06,9.42C27,30,28.13,30.11,27.88,31.31Z" style="fill: #047fe4"/>
      <path d="M27.9,53.19a157.79,157.79,0,0,0-14.32-8.77c-2-1.18-2.53-2.5-1.9-4.55a1.46,1.46,0,0,1,.5,0c1.6.75,2.9,2.8,4.64,2.34,1.52-.4,2.71-2.07,4.05-3.17C22.91,37.39,25,35.76,27,34a1.72,1.72,0,0,1,2.73,0c2.73,2.4,5.67,4.58,8.35,7,1.56,1.44,2.83,1.55,4.41.2A21,21,0,0,1,45,39.64c.62,2.23.25,3.64-1.83,4.76-4.21,2.28-8.27,4.85-12.38,7.33-.67.41-1.57.57-1.88,1.46Z" style="fill: #047fe4"/>
    </g>
    <path d="M67.33,26.6c0-4.34.08-8.67,0-13,0-1.68.51-2.11,2.11-2,3.32.14,6.68-.15,10,.18,8.69.88,13.55,6.59,13.33,15.33S87.15,41.19,78.22,41.58c-3.09.13-6.2,0-9.29.07-1.43,0-1.64-.59-1.63-1.81C67.36,35.43,67.33,31,67.33,26.6Zm6.13-.21q0,4.06,0,8.13c0,.79,0,1.6,1.14,1.56a35.56,35.56,0,0,0,5.09-.18c5.61-1,8.31-7,6.21-13.26a7.66,7.66,0,0,0-5.65-5.3c-1.89-.49-3.85-.2-5.78-.26-1.07,0-1,.71-1,1.42Q73.45,22.44,73.46,26.39Z" style="fill: #047fe4"/>
    <path d="M164.44,21.2c4.07-2.59,8-2.72,11.53.32,3.92,3.4,4.43,8,3.37,12.79A9.43,9.43,0,0,1,171.61,42a8.22,8.22,0,0,1-5.8-1.06c-.64-.34-.81-.46-1.64.2-1.4,1.13-3.54.48-5.35.3-.69-.07-.45-1-.45-1.63,0-9.38,0-18.76,0-28.14,0-1.29.32-1.71,1.67-1.73,4.42-.07,4.42-.13,4.42,4.3C164.44,16.49,164.44,18.72,164.44,21.2Zm0,9.51h0a10.16,10.16,0,0,1,0,1.62c-.64,3.94,3.29,5,5.85,4.16,2.24-.73,3.66-3.34,3.48-6.2s-1.81-5.17-4.23-5.67-4.84.93-5.05,2.86A29.38,29.38,0,0,0,164.45,30.7Z" style="fill: #047fe4"/>
    <path d="M140.23,40.17c0,2.86-.07,5.39,0,7.92,0,1.24-.35,1.55-1.56,1.58-4.53.12-4.53.17-4.53-4.43,0-7.74.07-15.48,0-23.22,0-1.9.61-2.61,2.32-2.17,1.3.33,3.07-1.19,3.93,1,.18.45.63-.08.93-.22,5.57-2.75,11.1-.8,13.34,4.82a14.35,14.35,0,0,1,.32,9.77C153.35,40.49,147,44.61,140.23,40.17Zm0-9.4a7.8,7.8,0,0,1,0,1.62c-.73,3.38,3,5.08,5.95,4.09,2-.68,3.35-2.94,3.39-5.56,0-2.94-1.22-5.17-3.4-6-3.25-1.24-5.9.56-5.92,4C140.23,29.53,140.23,30.15,140.23,30.76Z" style="fill: #047fe4"/>
    <path d="M131.49,30.84c0,6.59-4.49,11.29-10.7,11.24s-10.6-4.82-10.58-11.64c0-6.63,4.38-11.16,10.72-11.13S131.5,23.9,131.49,30.84Zm-5.88.09a24.32,24.32,0,0,0-.32-2.66A4.54,4.54,0,0,0,121,24.41c-2.15-.06-3.77,1.24-4.49,3.63a9.11,9.11,0,0,0,0,5.25A4.54,4.54,0,0,0,120.72,37c2,.16,3.83-1.35,4.5-3.65A18.44,18.44,0,0,0,125.61,30.93Z" style="fill: #047fe4"/>
    <path d="M182,30.65c0-6.68,4.29-11.31,10.58-11.32s10.61,4.52,10.65,11.49c0,6.64-4.35,11.35-10.58,11.37S182,37.54,182,30.65Zm5.75.1a26.64,26.64,0,0,0,.53,2.72c.64,2.13,2,3.54,4.32,3.55s3.7-1.41,4.37-3.51a8.69,8.69,0,0,0-.36-6.35,4.15,4.15,0,0,0-4-2.68,4.27,4.27,0,0,0-4,2.65A8.77,8.77,0,0,0,187.75,30.75Z" style="fill: #047fe4"/>
    <path d="M213.53,34.75c-.87,1.22-1.5,2.1-2.12,3-3,4.29-3,4.29-8.85,3.69,2.17-3.08,4.14-6.1,6.34-8.94,1.22-1.56,1.11-2.68,0-4.19-2-2.62-3.8-5.41-5.92-8.47,2.12,0,3.87.06,5.61,0,1.56-.08,1.85,1.25,2.46,2.13,2.76,4,3,4.14,5.38.09,2-3.44,4.9-1.76,8-2.35-2.35,3.32-4.27,6.2-6.38,8.94-1,1.29-.9,2.16,0,3.42,2.26,3,4.35,6.12,6.48,9.15C218.15,43.79,216.32,38.65,213.53,34.75Z" style="fill: #047fe4"/>
    <path d="M108.72,25.36a27.16,27.16,0,0,0-2.89-.33c-2.7,0-4.16,1.43-4.19,4.12,0,3.49-.09,7,0,10.46.05,1.6-.37,2.12-2,2.09-4.09-.07-4.09,0-4.09-4,0-5.35.06-10.69,0-16,0-1.55.51-2.28,1.94-1.83s3.44-1.42,4.3,1.14c.11.34.5,0,.74-.15a10.38,10.38,0,0,1,1.34-.91c3.21-1.62,4.88-.65,4.89,2.81C108.72,23.6,108.72,24.44,108.72,25.36Z" style="fill: #047fe4"/>
  </g>
</svg>
