<svg xmlns="http://www.w3.org/2000/svg" width="200" height="200" viewBox="0 0 200 200">
  <defs>
    <style>
      .a {
        fill: #fff;
      }

      .b {
        fill: #323c64;
      }

      .c {
        fill: #ffd764;
      }

      .d, .e {
        fill: none;
        stroke: #323c64;
        stroke-miterlimit: 10;
      }

      .d {
        stroke-width: 2px;
        stroke-dasharray: 7.43 7.43;
      }

      .e {
        stroke-width: 3px;
      }
    </style>
  </defs>
  <title>logo-big</title>
  <g>
    <g>
      <circle class="a" cx="100" cy="100" r="99" transform="translate(-14.73 182.69) rotate(-80.78)"/>
      <path class="b" d="M100,2A98,98,0,1,1,2,100,98.11,98.11,0,0,1,100,2m0-2A100,100,0,1,0,200,100,100,100,0,0,0,100,0Z"/>
    </g>
    <g>
      <circle class="c" cx="100" cy="100" r="75.7"/>
      <circle class="d" cx="100" cy="100" r="75.7"/>
    </g>
    <path class="e" d="M24.3,100A75.7,75.7,0,0,1,100,24.3"/>
    <path class="e" d="M175.7,100A75.7,75.7,0,0,1,100,175.7"/>
    <g>
      <path class="a" d="M27.08,36.26a4.59,4.59,0,0,1-3.3-7.78,4.58,4.58,0,0,1,6.49-.12,4.59,4.59,0,0,1-3.19,7.9Z"/>
      <path class="b" d="M27.08,28.07h0a3.59,3.59,0,1,1-2.58,1.1,3.58,3.58,0,0,1,2.58-1.1m0-2A5.6,5.6,0,1,0,31,27.64a5.61,5.61,0,0,0-3.89-1.57Z"/>
    </g>
    <g>
      <path class="a" d="M170.55,174.73a4.59,4.59,0,1,1,3.31-1.41A4.57,4.57,0,0,1,170.55,174.73Z"/>
      <path class="b" d="M170.55,166.54h0a3.6,3.6,0,1,1,0,7.19,3.55,3.55,0,0,1-2.49-1,3.59,3.59,0,0,1-.09-5.08,3.55,3.55,0,0,1,2.58-1.1m0-2a5.6,5.6,0,1,0,3.88,1.57,5.55,5.55,0,0,0-3.88-1.57Z"/>
    </g>
    <circle class="b" cx="170.26" cy="29.57" r="5.59"/>
    <circle class="b" cx="31.79" cy="173.04" r="5.59"/>
    <g>
      <path class="b" d="M57,67.63H102.8V79.9H86.87v58.43h-14V79.9H57Z"/>
      <path class="b" d="M131,96.45v17.32q0,4.94.25,7.86a12,12,0,0,0,1.08,4.47,3.68,3.68,0,0,0,2.42,2,17.37,17.37,0,0,0,4.26.41v8.43a11.88,11.88,0,0,1-1.75.72,10.4,10.4,0,0,1-1.9.51,11.5,11.5,0,0,1-2.21.21,18,18,0,0,1-4.52-.67,12.34,12.34,0,0,1-4.88-2.62,15.89,15.89,0,0,1-3.95-5.34,20.56,20.56,0,0,1-1.65-8.94V96.45H110V85.3h8.12V67.63H131V85.3h11.3l-1.64,11.15Z"/>
    </g>
    <circle class="b" cx="24.3" cy="96.99" r="4"/>
    <circle class="b" cx="175.7" cy="102.98" r="4"/>
  </g>
</svg>
