<svg xmlns="http://www.w3.org/2000/svg" xmlns:xlink="http://www.w3.org/1999/xlink" width="227.17" height="52.67" viewBox="0 0 227.17 52.67">
  <title>logo-wunderlist</title>
  <g>
    <image width="256" height="256" transform="scale(0.21)" xlink:href="logo-wunderlist1.png"/>
    <path d="M78,14.81h3.49l5.78,17.5L92.9,14.88h4.33L89,38.56H85.48L79.7,21.66,73.92,38.56H70.36L62.17,14.88h4.47l5.61,17.43Zm31.6,5.84h4.1V38.39h-4.1V35.61a8.67,8.67,0,0,1-2.18,2.22,5.62,5.62,0,0,1-3.35.93,5.9,5.9,0,0,1-4.65-1.85,7.21,7.21,0,0,1-1.64-5V20.66h4.1V30.71a4.71,4.71,0,0,0,1,3.2A3.49,3.49,0,0,0,105.66,35a3.77,3.77,0,0,0,2.86-1.16,4.51,4.51,0,0,0,1.1-3.23v-10Zm11.49,17.73H117V20.66h4.1v2.78a10.17,10.17,0,0,1,1-1.2,6.06,6.06,0,0,1,4.57-1.95,5.9,5.9,0,0,1,4.65,1.85,7.21,7.21,0,0,1,1.64,5V38.39h-4.1V28.34a4.71,4.71,0,0,0-1-3.2A3.5,3.5,0,0,0,125.07,24a3.77,3.77,0,0,0-2.86,1.16,4.51,4.51,0,0,0-1.1,3.23v10Zm28.24,0v-3a9.15,9.15,0,0,1-2.43,2.35,6.35,6.35,0,0,1-3.6,1,8,8,0,0,1-3-.6,7.54,7.54,0,0,1-2.61-1.8,9.21,9.21,0,0,1-1.84-2.9,10.26,10.26,0,0,1-.7-3.93,10.49,10.49,0,0,1,.69-3.93,9,9,0,0,1,1.83-2.91,7.49,7.49,0,0,1,2.63-1.8,8.09,8.09,0,0,1,3.07-.6,6.49,6.49,0,0,1,3.62.94,9.83,9.83,0,0,1,2.41,2.18V13.87h4.1V38.39ZM149,27.17a5.77,5.77,0,0,0-1.12-1.8,4.82,4.82,0,0,0-1.64-1.16,5,5,0,0,0-3.9,0,4.78,4.78,0,0,0-1.62,1.12,5.29,5.29,0,0,0-1.1,1.8,6.74,6.74,0,0,0-.4,2.4,6.64,6.64,0,0,0,.4,2.37,5.3,5.3,0,0,0,1.1,1.8,5,5,0,0,0,1.62,1.14,4.91,4.91,0,0,0,5.54-1.16,5.76,5.76,0,0,0,1.12-1.8,6.81,6.81,0,0,0,0-4.7Zm12.54,7.14a5,5,0,0,0,3.36,1.16,6,6,0,0,0,2.62-.54,8.48,8.48,0,0,0,2.18-1.58l2.38,2.12a9.83,9.83,0,0,1-3,2.42,9.11,9.11,0,0,1-4.22.91,9.46,9.46,0,0,1-3.58-.67,8.57,8.57,0,0,1-4.82-4.79,9.74,9.74,0,0,1-.71-3.78,10,10,0,0,1,.64-3.59,9.05,9.05,0,0,1,1.8-2.94,8.67,8.67,0,0,1,2.74-2,8.13,8.13,0,0,1,3.49-.74,8.43,8.43,0,0,1,3.71.77,7.63,7.63,0,0,1,2.65,2.08,9,9,0,0,1,1.6,3.06,12.32,12.32,0,0,1,.52,4.2c0,.18,0,.37-.05.57h-13a5.34,5.34,0,0,0,1.75,3.34Zm7.32-6a7,7,0,0,0-.44-1.83,4.74,4.74,0,0,0-.91-1.48,4.31,4.31,0,0,0-1.36-1,4.2,4.2,0,0,0-1.8-.37,4.09,4.09,0,0,0-3.11,1.29,5.84,5.84,0,0,0-1.5,3.38h9.1Zm10.41,10.11h-4.1V20.66h4.1v4a7.8,7.8,0,0,1,2.38-3.22,5.71,5.71,0,0,1,3.89-1.11v4.3h-.24a6.62,6.62,0,0,0-2.45.44A5.14,5.14,0,0,0,181,26.37a5.93,5.93,0,0,0-1.24,2.2,9.83,9.83,0,0,0-.44,3.07Zm8.19,0V13.87h4.1V38.39Zm7.62-20.45V14.07h4.4v3.86Zm.17,20.45V20.66h4.1V38.39ZM215,35.6a4.8,4.8,0,0,1-1.39,1.73,6.22,6.22,0,0,1-2.1,1,9.24,9.24,0,0,1-2.59.35,12,12,0,0,1-3.88-.67,12.43,12.43,0,0,1-3.64-2l1.81-2.76a11.82,11.82,0,0,0,2.94,1.63,8.26,8.26,0,0,0,2.87.55,3.43,3.43,0,0,0,2-.52,1.63,1.63,0,0,0,.72-1.39v-.07a1.29,1.29,0,0,0-.32-.87,2.86,2.86,0,0,0-.87-.65,7.66,7.66,0,0,0-1.27-.5l-1.5-.45q-1-.3-2-.67a7.09,7.09,0,0,1-1.78-1A4.81,4.81,0,0,1,202.76,28a4.15,4.15,0,0,1-.5-2.13v-.07a5.1,5.1,0,0,1,.49-2.25,5,5,0,0,1,1.34-1.71,6,6,0,0,1,2-1.07,8.09,8.09,0,0,1,2.47-.37,11.26,11.26,0,0,1,3.39.54,12.2,12.2,0,0,1,3.12,1.48l-1.61,2.89A13.61,13.61,0,0,0,210.88,24a7.43,7.43,0,0,0-2.42-.45,2.94,2.94,0,0,0-1.83.5,1.55,1.55,0,0,0-.65,1.28v.07a1.15,1.15,0,0,0,.34.82,3.3,3.3,0,0,0,.89.64,10,10,0,0,0,1.27.54q.72.25,1.5.49c.65.2,1.3.44,1.95.7a8.06,8.06,0,0,1,1.76,1A4.89,4.89,0,0,1,215,31a3.91,3.91,0,0,1,.5,2v.07A5.6,5.6,0,0,1,215,35.6Zm7.42-2.76a2.22,2.22,0,0,0,.57,1.7,2.3,2.3,0,0,0,1.61.52,5.56,5.56,0,0,0,2.52-.6v3.32a7,7,0,0,1-1.65.67,7.83,7.83,0,0,1-2,.24,7.48,7.48,0,0,1-2.06-.27,4.23,4.23,0,0,1-1.64-.87,3.87,3.87,0,0,1-1.07-1.6,7.06,7.06,0,0,1-.37-2.47V24.12h-2.25V20.66h2.25V15.79h4.1v4.87h4.77v3.46H222.4v8.73Z" style="fill: #353434"/>
  </g>
</svg>
