<svg xmlns="http://www.w3.org/2000/svg" width="27" height="27" viewBox="0 0 27 27">
  <defs>
    <style>
      .a {
        fill: #ffd764;
        stroke: #323c64;
        stroke-miterlimit: 10;
        stroke-width: 2px;
      }

      .b {
        fill: #323c64;
      }
    </style>
  </defs>
  <title>plus</title>
  <g>
    <circle class="a" cx="13.5" cy="13.5" r="12.5"/>
    <path class="b" d="M19.33,14.39H14.81a.42.42,0,0,0-.42.42v4.52a.42.42,0,0,1-.42.42H13a.42.42,0,0,1-.42-.42V14.81a.42.42,0,0,0-.42-.42H7.67A.42.42,0,0,1,7.25,14V13a.42.42,0,0,1,.42-.42h4.52a.42.42,0,0,0,.42-.42V7.67A.42.42,0,0,1,13,7.25H14a.42.42,0,0,1,.42.42v4.52a.42.42,0,0,0,.42.42h4.52a.42.42,0,0,1,.42.42V14A.42.42,0,0,1,19.33,14.39Z"/>
  </g>
</svg>
