<svg xmlns="http://www.w3.org/2000/svg" width="87" height="87" viewBox="0 0 87 87">
  <defs>
    <style>
      .a {
        fill: #ffd764;
        stroke-miterlimit: 10;
        stroke-width: 2px;
      }

      .a, .c, .d {
        stroke: #323c64;
      }

      .b, .d {
        fill: #fff;
      }

      .c {
        fill: none;
      }

      .c, .d {
        stroke-linecap: round;
        stroke-linejoin: round;
        stroke-width: 1.5px;
      }
    </style>
  </defs>
  <title>recuerde</title>
  <g>
    <circle class="a" cx="43.5" cy="43.5" r="42.5"/>
    <g>
      <path class="b" d="M58.19,45s0,0,0,0V14.53a4.21,4.21,0,0,0-4.85-4.16,4.31,4.31,0,0,0-3.57,4.31V37.09a4.21,4.21,0,0,0-8.39-.5s0,0-.06,0a4.21,4.21,0,0,0-8.35,0,0,0,0,0,1-.07,0,4.22,4.22,0,0,0-4.64-3.68,4.46,4.46,0,0,0-3.74,4.34v9.86l.06,12.82A16.8,16.8,0,0,0,41.32,76.68h4.39A16.83,16.83,0,0,0,62.5,59.89V47.25A1.8,1.8,0,0,0,61,45.47Z"/>
      <rect class="c" x="24.5" y="32.89" width="8.42" height="18.36" rx="4.21" ry="4.21"/>
      <rect class="c" x="32.91" y="32.89" width="8.42" height="18.36" rx="4.21" ry="4.21"/>
      <path class="c" d="M47.73,50.63a4.19,4.19,0,0,1-2.19.61h0A4.22,4.22,0,0,1,41.33,47V37.09a4.22,4.22,0,0,1,4.21-4.2h0a4.21,4.21,0,0,1,4.21,4.2v6"/>
      <path class="c" d="M24.5,46.3l.06,13.63A16.8,16.8,0,0,0,41.32,76.68h4.43A16.8,16.8,0,0,0,62.5,59.93V47.83a2.49,2.49,0,0,0-2.06-2.46L49.94,43.5a3.71,3.71,0,0,0-4.23,3.06h0c-.32,2,1.14,3.51,3.06,4.22l8,2.54"/>
      <path class="c" d="M49.75,42.81V14.53A4.22,4.22,0,0,1,54,10.32h0a4.22,4.22,0,0,1,4.21,4.21V44.44"/>
      <polygon class="d" points="63.14 29.59 49.75 29.59 49.75 20.71 63.14 20.71 59.52 25.15 63.14 29.59"/>
      <line class="c" x1="49.75" y1="25.15" x2="54.99" y2="25.15"/>
    </g>
  </g>
</svg>
