<svg xmlns="http://www.w3.org/2000/svg" width="65" height="86.83" viewBox="0 0 65 86.83">
  <title>uned</title>
  <g>
    <g>
      <path d="M55.49,79.52V75.8c1.2.21,1.48.94,1.48,2a1.6,1.6,0,0,1-1.48,1.75m-.77-6h-.36a1.13,1.13,0,0,0-1.13,1.13v6.11a1.13,1.13,0,0,0,1.13,1.13h.36c2.78,0,4.52-1.56,4.52-4.08,0-2.73-1.65-4.29-4.52-4.29" style="fill: #a6a6a6"/>
      <path d="M55.9,84.32H49.73V70.8h4.74c3.77,0,8.27,1.21,8.27,7,0,4-2.69,6.53-6.84,6.53m-10.43,0H36.9V70.8h8.41v2.05H41.57A1.13,1.13,0,0,0,40.45,74v1.51a1.13,1.13,0,0,0,1.13,1.13h3.31v1.84H41.57a1.13,1.13,0,0,0-1.13,1.13v1.55a1.13,1.13,0,0,0,1.13,1.13h3.9Zm-12.85,0H28.87l-4.74-7.75a1.13,1.13,0,0,0-1-.54H23a1.13,1.13,0,0,0-1.11,1.32,17.35,17.35,0,0,1,.34,3v4H19V70.8h3.76L27.58,79a1.13,1.13,0,0,0,1,.55h.17a1.13,1.13,0,0,0,1.11-1.32l0-.21a21.36,21.36,0,0,1-.43-3.61V70.8h3.25ZM14.68,79c0,3.69-2.09,5.57-6.21,5.57S2.26,82.69,2.26,79V70.8h3.5v7.66c0,1,0,3.45,2.71,3.45s2.71-2.42,2.71-3.45V70.8h3.5ZM54.47,68.54H48.6a1.13,1.13,0,0,0-1.08.83,1.13,1.13,0,0,0-1.08-.83H35.77a1.13,1.13,0,0,0-1,.63,1.13,1.13,0,0,0-1-.63H28.24a1.13,1.13,0,0,0-1.13,1.13v4.09l-2.76-4.66a1.13,1.13,0,0,0-1-.56H17.85a1.13,1.13,0,0,0-1,.65,1.13,1.13,0,0,0-1-.65H10a1.13,1.13,0,0,0-1.13,1.13v8.79a3.65,3.65,0,0,1-.11,1.15.8.8,0,0,1-.34,0,.81.81,0,0,1-.34,0A3.66,3.66,0,0,1,8,78.45V69.67a1.13,1.13,0,0,0-1.13-1.13H1.13A1.13,1.13,0,0,0,0,69.67V79c0,5,3.09,7.83,8.47,7.83,4.57,0,7.47-2.06,8.25-5.72v4.34a1.13,1.13,0,0,0,1.13,1.13h5.51a1.13,1.13,0,0,0,1.13-1.13v-4L27.28,86a1.13,1.13,0,0,0,1,.54h5.51a1.13,1.13,0,0,0,1-.63,1.13,1.13,0,0,0,1,.63H46.6a1.12,1.12,0,0,0,1-.61,1.13,1.13,0,0,0,1,.61h7.3c5.36,0,9.1-3.61,9.1-8.79,0-5.88-3.84-9.25-10.53-9.25" style="fill: #a6a6a6"/>
      <path d="M15.81,69.67V79c0,4.6-2.9,6.7-7.34,6.7S1.13,83.6,1.13,79V69.67H6.89v8.79c0,1.24,0,2.32,1.58,2.32S10,79.69,10,78.45V69.67Z" style="fill: #fff"/>
      <path d="M17.85,69.67h5.53l5.18,8.75h.17a23.55,23.55,0,0,1-.48-4V69.67h5.51V85.45H28.24l-5.07-8.29H23a18.34,18.34,0,0,1,.36,3.16v5.13H17.85Z" style="fill: #fff"/>
      <polygon points="35.77 69.67 46.44 69.67 46.44 73.98 41.58 73.98 41.58 75.48 46.01 75.48 46.01 79.58 41.58 79.58 41.58 81.13 46.6 81.13 46.6 85.44 35.77 85.44 35.77 69.67" style="fill: #fff"/>
      <path d="M48.6,85.45h7.3c4.65,0,8-3,8-7.66,0-5.8-4.08-8.12-9.4-8.12H48.6ZM54.36,74.6h.36c2.1,0,3.39.94,3.39,3.16s-1.47,3-3.39,3h-.36Z" style="fill: #fff"/>
    </g>
    <g>
      <path d="M32.5,44.69A12.25,12.25,0,0,0,44.75,32.45V2.36A32.21,32.21,0,0,0,40.49,1V32.45a8,8,0,1,1-16,0V1a32.35,32.35,0,0,0-4.25,1.4V32.45A12.25,12.25,0,0,0,32.5,44.69" style="fill: #00519e"/>
      <path d="M32.5,37.95a5.5,5.5,0,0,0,5.5-5.5V.44A32.56,32.56,0,0,0,33.74,0V32.45a1.24,1.24,0,1,1-2.48,0V0A32.57,32.57,0,0,0,27,.44v32a5.5,5.5,0,0,0,5.5,5.5" style="fill: #00519e"/>
      <path d="M32.5,51.46a19,19,0,0,0,19-19V6.12a32.48,32.48,0,0,0-4.27-2.61V32.45a14.74,14.74,0,1,1-29.48,0V3.51a32.4,32.4,0,0,0-4.27,2.61V32.45a19,19,0,0,0,19,19" style="fill: #00519e"/>
      <path d="M32.5,58.22A25.77,25.77,0,0,0,58.27,32.45V12.69A32.75,32.75,0,0,0,54,8.12V32.45a21.51,21.51,0,0,1-43,0V8.12a32.58,32.58,0,0,0-4.27,4.58V32.45A25.77,25.77,0,0,0,32.5,58.22" style="fill: #00519e"/>
      <path d="M60.77,16.46v16a28.27,28.27,0,0,1-56.54,0l-.1-.26V16.62a32.49,32.49,0,1,0,56.63-.17" style="fill: #00519e"/>
    </g>
  </g>
</svg>
